<?xml version="1.0" encoding="UTF-8" standalone="no"?>
<svg
   viewBox="0 0 126.98413 126.98413"
   version="1.1"
   id="svg15"
   sodipodi:docname="h2.svg"
   xml:space="preserve"
   inkscape:version="1.4 (e7c3feb100, 2024-10-09)"
   width="16"
   height="16"
   xmlns:inkscape="http://www.inkscape.org/namespaces/inkscape"
   xmlns:sodipodi="http://sodipodi.sourceforge.net/DTD/sodipodi-0.dtd"
   xmlns:xlink="http://www.w3.org/1999/xlink"
   xmlns="http://www.w3.org/2000/svg"
   xmlns:svg="http://www.w3.org/2000/svg"><sodipodi:namedview
     id="namedview15"
     pagecolor="#505050"
     bordercolor="#ffffff"
     borderopacity="1"
     inkscape:showpageshadow="0"
     inkscape:pageopacity="0"
     inkscape:pagecheckerboard="1"
     inkscape:deskcolor="#505050"
     inkscape:zoom="45.254834"
     inkscape:cx="8.3637474"
     inkscape:cy="7.4688154"
     inkscape:window-width="1840"
     inkscape:window-height="1011"
     inkscape:window-x="0"
     inkscape:window-y="0"
     inkscape:window-maximized="1"
     inkscape:current-layer="svg15" /><defs
     id="defs2"><linearGradient
       id="linearGradient1"
       inkscape:collect="always"><stop
         style="stop-color:#411f5d;stop-opacity:1;"
         offset="0"
         id="stop3" /><stop
         style="stop-color:#5b2a85;stop-opacity:1;"
         offset="1"
         id="stop4" /></linearGradient><inkscape:path-effect
       effect="perspective-envelope"
       up_left_point="98.717368,91.305595"
       up_right_point="106.52828,87.788974"
       down_left_point="98.690893,96.103429"
       down_right_point="106.4027,91.51207"
       id="path-effect24"
       is_visible="true"
       lpeversion="1"
       deform_type="perspective"
       horizontal_mirror="false"
       vertical_mirror="false"
       overflow_perspective="false" /><inkscape:path-effect
       effect="perspective-envelope"
       up_left_point="14.565835,48.444372"
       up_right_point="48.754949,60.738157"
       down_left_point="13.300298,90.144513"
       down_right_point="47.670203,105.87333"
       id="path-effect21"
       is_visible="true"
       lpeversion="1"
       deform_type="perspective"
       horizontal_mirror="false"
       vertical_mirror="false"
       overflow_perspective="false" /><linearGradient
       id="SVGID_1_"
       gradientTransform="scale(-1,1)"
       gradientUnits="userSpaceOnUse"
       x1="-96.680801"
       x2="-110.7736"
       y1="-108.3677"
       y2="-79.065697"><stop
         offset="0.3098"
         stop-color="#FCE8B2"
         id="stop1" /><stop
         offset="0.3987"
         stop-color="#FFCC80"
         id="stop2" /></linearGradient><linearGradient
       id="linearGradient4292"><stop
         id="stop4294"
         offset="0"
         style="stop-color:#411f5d;stop-opacity:1" /><stop
         id="stop4296"
         offset="1"
         style="stop-color:#5b2a85;stop-opacity:1" /></linearGradient><linearGradient
       id="linearGradient4284"><stop
         offset="0"
         style="stop-color:#8381c5;stop-opacity:1"
         id="stop4286" /><stop
         id="stop4290"
         style="stop-color:#7e55b3;stop-opacity:0.99607843"
         offset="0.56639391" /><stop
         offset="1"
         style="stop-color:#a52ecb;stop-opacity:0.99215686"
         id="stop4288" /></linearGradient><linearGradient
       id="linearGradient4898"><stop
         id="stop4278"
         style="stop-color:#bab8db;stop-opacity:1"
         offset="0" /><stop
         id="stop4280"
         style="stop-color:#5955a9;stop-opacity:0.99159664"
         offset="1" /></linearGradient><linearGradient
       id="linearGradient3294"><stop
         offset="0"
         style="stop-color:#6376e6;stop-opacity:1"
         id="stop3296" /><stop
         offset="0.50094414"
         style="stop-color:#222989;stop-opacity:1"
         id="stop3302" /><stop
         offset="1"
         style="stop-color:#00003d;stop-opacity:1"
         id="stop3298" /></linearGradient><linearGradient
       id="linearGradient3284"><stop
         offset="0"
         style="stop-color:#000000;stop-opacity:1"
         id="stop3286" /><stop
         offset="0.84845906"
         style="stop-color:#000000;stop-opacity:0.49803922"
         id="stop3292" /><stop
         offset="1"
         style="stop-color:#000000;stop-opacity:0"
         id="stop3288" /></linearGradient><linearGradient
       id="linearGradient3274"><stop
         offset="0"
         style="stop-color:#000000;stop-opacity:1"
         id="stop3276" /><stop
         offset="1"
         style="stop-color:#000000;stop-opacity:0"
         id="stop3278" /></linearGradient><linearGradient
       id="linearGradient3242"><stop
         offset="0"
         style="stop-color:#282828;stop-opacity:1"
         id="stop3244" /><stop
         offset="0.39253417"
         style="stop-color:#808080;stop-opacity:1"
         id="stop3252" /><stop
         offset="1"
         style="stop-color:#d9d9d9;stop-opacity:1"
         id="stop3246" /></linearGradient><linearGradient
       id="linearGradient3202"><stop
         offset="0"
         style="stop-color:#2b2b2b;stop-opacity:1"
         id="stop3204" /><stop
         offset="0.5"
         style="stop-color:#828383;stop-opacity:1"
         id="stop3250" /><stop
         offset="1"
         style="stop-color:#dadbdb;stop-opacity:1"
         id="stop3206" /></linearGradient><linearGradient
       id="linearGradient4966"><stop
         offset="0"
         style="stop-color:#b6b3d8;stop-opacity:1"
         id="stop4968" /><stop
         offset="1"
         style="stop-color:#b6b3d8;stop-opacity:0"
         id="stop4970" /></linearGradient><linearGradient
       id="linearGradient4876"><stop
         offset="0"
         style="stop-color:#d3d2e8;stop-opacity:1"
         id="stop4878" /><stop
         offset="1"
         style="stop-color:#5955a9;stop-opacity:0.99159664"
         id="stop4880" /></linearGradient><radialGradient
       gradientTransform="matrix(0.6817439,0,0,0.5905355,-3.8523706,-28.935273)"
       gradientUnits="userSpaceOnUse"
       xlink:href="#linearGradient4898"
       id="radialGradient4892"
       fy="-108.96888"
       fx="20.951529"
       r="266.76535"
       cy="-108.96888"
       cx="20.951529" /><radialGradient
       gradientTransform="matrix(1,0,0,0.1854103,0,383.88493)"
       gradientUnits="userSpaceOnUse"
       xlink:href="#linearGradient3274"
       id="radialGradient4944"
       fy="471.26172"
       fx="233.8876"
       r="170.49393"
       cy="471.26172"
       cx="233.8876" /><radialGradient
       gradientTransform="matrix(1,0,0,0.9121621,0,32.654948)"
       gradientUnits="userSpaceOnUse"
       xlink:href="#linearGradient4966"
       id="radialGradient4972"
       fy="371.76376"
       fx="299.70135"
       r="76.696358"
       cy="371.76376"
       cx="299.70135" /><radialGradient
       gradientTransform="matrix(0.414705,0.3300575,-0.5059004,0.6356454,346.95314,49.479585)"
       gradientUnits="userSpaceOnUse"
       xlink:href="#linearGradient3202"
       id="radialGradient3210"
       fy="390.45248"
       fx="289.44067"
       r="17.67668"
       cy="390.45248"
       cx="289.44067" /><radialGradient
       gradientTransform="matrix(0.414705,0.3300575,-0.5059004,0.6356454,448.41009,-65.398074)"
       gradientUnits="userSpaceOnUse"
       xlink:href="#linearGradient3202"
       id="radialGradient3238"
       fy="382.14804"
       fx="283.50717"
       r="17.67668"
       cy="382.14804"
       cx="283.50717" /><radialGradient
       gradientTransform="matrix(-0.06556501,-0.05972176,1.6871024,-1.8521705,171.90774,540.51473)"
       gradientUnits="userSpaceOnUse"
       xlink:href="#linearGradient3242"
       id="radialGradient3248"
       fy="181.18982"
       fx="418.45551"
       r="63.068935"
       cy="181.18982"
       cx="418.45551" /><radialGradient
       gradientTransform="matrix(0.4055116,-0.03344012,0.1034174,4.3988695,177.23251,-1191.6649)"
       gradientUnits="userSpaceOnUse"
       xlink:href="#linearGradient3274"
       id="radialGradient3268"
       fy="357.33591"
       fx="354.51709"
       r="33.712105"
       cy="357.33591"
       cx="354.51709" /><radialGradient
       gradientTransform="matrix(-0.1339874,-0.1146812,0.3079048,-0.3597394,444.23592,395.03849)"
       gradientUnits="userSpaceOnUse"
       xlink:href="#linearGradient3274"
       id="radialGradient3280"
       fy="223.55537"
       fx="510.58469"
       r="132.28336"
       cy="223.55537"
       cx="510.58469" /><radialGradient
       gradientTransform="matrix(-1.2497569,1.3798305,-0.09628946,-0.07297448,674.3826,-70.590682)"
       gradientUnits="userSpaceOnUse"
       xlink:href="#linearGradient3284"
       id="radialGradient3290"
       fy="-158.17821"
       fx="284.4671"
       r="110.2972"
       cy="-158.17821"
       cx="284.4671" /><radialGradient
       gradientTransform="matrix(-0.1008165,-0.08087232,1.0745309,-1.3395252,13.843287,784.79288)"
       gradientUnits="userSpaceOnUse"
       xlink:href="#linearGradient3294"
       id="radialGradient3300"
       fy="356.62274"
       fx="425.51019"
       r="143.34167"
       cy="356.62274"
       cx="425.51019" /><filter
       height="1.1062305"
       y="-0.053115234"
       width="1.1073157"
       x="-0.053657863"
       id="filter4350"
       style="color-interpolation-filters:sRGB"><feGaussianBlur
         id="feGaussianBlur4352"
         stdDeviation="8.7848425" /></filter><linearGradient
       y2="300.73987"
       x2="236.61363"
       y1="-161.8512"
       x1="-122.20192"
       spreadMethod="pad"
       gradientTransform="matrix(0.87385837,0,0,0.82818057,246.00762,250.28138)"
       gradientUnits="userSpaceOnUse"
       id="linearGradient4245"
       xlink:href="#linearGradient4284" /><linearGradient
       y2="66.018341"
       x2="173.94518"
       y1="396.6066"
       x1="447.80933"
       gradientTransform="matrix(0.98684959,0,0,0.98684959,3.0344187,2.5250397)"
       gradientUnits="userSpaceOnUse"
       id="linearGradient4247"
       xlink:href="#linearGradient4292" /><linearGradient
       inkscape:collect="always"
       xlink:href="#linearGradient1"
       id="linearGradient4"
       x1="28.285743"
       y1="63.662296"
       x2="100.7223"
       y2="63.662296"
       gradientUnits="userSpaceOnUse"
       gradientTransform="translate(-9.9524242,2.6829002)" /></defs><g
     id="text1"><path
       style="-inkscape-font-specification:'Fira Sans Semi-Bold';fill:url(#linearGradient4);stroke-linejoin:round;paint-order:markers stroke fill"
       d="m 20.953125,28.095703 a 7.9372937,7.9372937 0 0 0 -7.9375,7.935547 v 54.921875 a 7.9372937,7.9372937 0 0 0 7.9375,7.935547 h 11.666016 a 7.9372937,7.9372937 0 0 0 7.935546,-7.935547 V 74.841797 h 2.302735 v 16.111328 a 7.9372937,7.9372937 0 0 0 7.935547,7.935547 h 11.667968 a 7.9372937,7.9372937 0 0 0 4.126954,-1.708985 7.9372937,7.9372937 0 0 0 4.126953,1.708985 h 34.046876 a 7.9372937,7.9372937 0 0 0 7.85351,-6.792969 l 1.26954,-8.730469 a 7.9372937,7.9372937 0 0 0 -7.85352,-9.080078 h -3.41992 c 3.28681,-3.70485 5.8267,-7.21918 7.52344,-10.957031 1.72302,-3.679659 2.64257,-7.693721 2.64257,-11.740234 0,-4.127078 -1.14453,-8.266077 -3.32812,-11.771485 -2.18711,-3.641595 -5.50951,-6.535872 -9.31445,-8.414062 -3.99405,-2.023649 -8.484935,-2.910157 -13.150395,-2.910157 -6.33325,10e-7 -12.293477,2.139796 -17.341797,5.720704 A 7.9372937,7.9372937 0 0 0 62.460937,28.095703 H 50.792969 A 7.9372937,7.9372937 0 0 0 42.857422,36.03125 V 49.761719 H 40.554687 V 36.03125 a 7.9372937,7.9372937 0 0 0 -7.935546,-7.935547 z m 55.927734,11.462891 c -0.03381,0.01865 -0.05816,0.04759 -0.0918,0.06641 -0.02747,0.01589 -0.06051,0.0191 -0.08789,0.03516 z m 8.236328,13.714843 c -0.08456,0.784199 -0.166267,1.533336 -0.6875,2.507813 -0.701667,1.311814 -2.446666,3.751638 -5.160156,6.755859 -1.735387,1.921322 -5.604446,5.81922 -8.873047,9.16211 v -15.125 l 0.519532,0.416015 A 7.9372937,7.9372937 0 0 0 81.943359,55.90625 c 1.285749,-1.526827 2.316877,-2.289996 2.605469,-2.449219 a 7.9372937,7.9372937 0 0 0 0.179688,-0.101562 c 0.08377,-0.04911 0.295908,-0.04474 0.388671,-0.08203 z m 17.443363,21.080079 -0.0469,0.05273 c 0.009,-0.0099 0.0146,-0.01936 0.0234,-0.0293 0.006,-0.0064 0.0178,-0.01701 0.0234,-0.02344 z"
       id="path1" /><path
       style="-inkscape-font-specification:'Fira Sans Semi-Bold';fill:#ffffff;stroke-linejoin:round;paint-order:markers stroke fill"
       d="M 50.793625,90.952385 V 66.904761 H 32.619018 V 90.952385 H 20.952348 V 36.031738 h 11.66667 V 57.698409 H 50.793625 V 36.031738 H 62.460294 V 90.952385 Z M 86.984158,36.428563 q 5.555557,0 9.603177,2.063493 4.047615,1.984127 6.111115,5.476191 2.14285,3.4127 2.14285,7.61905 0,4.36508 -1.90476,8.4127 -1.82539,4.04762 -6.349205,9.126986 -4.444446,5.079366 -13.015876,13.095241 h 22.460321 l -1.26984,8.730161 H 70.714313 V 82.77778 q 10.000002,-10.000002 14.444448,-14.920638 4.444445,-4.920636 6.269842,-8.333335 1.825398,-3.4127 1.825398,-6.984129 0,-3.412699 -1.984128,-5.396827 -1.984127,-1.984127 -5.317461,-1.984127 -2.936509,0 -5.238097,1.349207 -2.301588,1.269841 -4.841271,4.285715 l -6.746033,-5.396827 q 6.825398,-8.968256 17.857147,-8.968256 z"
       id="path2" /></g></svg>
