<?xml version="1.0" encoding="UTF-8" standalone="no"?>
<svg
   viewBox="0 0 126.98413 126.98413"
   version="1.1"
   id="svg15"
   sodipodi:docname="h3.svg"
   xml:space="preserve"
   inkscape:version="1.4 (e7c3feb100, 2024-10-09)"
   width="16"
   height="16"
   xmlns:inkscape="http://www.inkscape.org/namespaces/inkscape"
   xmlns:sodipodi="http://sodipodi.sourceforge.net/DTD/sodipodi-0.dtd"
   xmlns:xlink="http://www.w3.org/1999/xlink"
   xmlns="http://www.w3.org/2000/svg"
   xmlns:svg="http://www.w3.org/2000/svg"><sodipodi:namedview
     id="namedview15"
     pagecolor="#505050"
     bordercolor="#ffffff"
     borderopacity="1"
     inkscape:showpageshadow="0"
     inkscape:pageopacity="0"
     inkscape:pagecheckerboard="1"
     inkscape:deskcolor="#505050"
     inkscape:zoom="45.254834"
     inkscape:cx="10.61765"
     inkscape:cy="7.7339804"
     inkscape:window-width="1840"
     inkscape:window-height="1011"
     inkscape:window-x="0"
     inkscape:window-y="0"
     inkscape:window-maximized="1"
     inkscape:current-layer="svg15" /><defs
     id="defs2"><linearGradient
       id="linearGradient1"
       inkscape:collect="always"><stop
         style="stop-color:#411f5d;stop-opacity:1;"
         offset="0"
         id="stop3" /><stop
         style="stop-color:#5b2a85;stop-opacity:1;"
         offset="1"
         id="stop4" /></linearGradient><inkscape:path-effect
       effect="perspective-envelope"
       up_left_point="98.717368,91.305595"
       up_right_point="106.52828,87.788974"
       down_left_point="98.690893,96.103429"
       down_right_point="106.4027,91.51207"
       id="path-effect24"
       is_visible="true"
       lpeversion="1"
       deform_type="perspective"
       horizontal_mirror="false"
       vertical_mirror="false"
       overflow_perspective="false" /><inkscape:path-effect
       effect="perspective-envelope"
       up_left_point="14.565835,48.444372"
       up_right_point="48.754949,60.738157"
       down_left_point="13.300298,90.144513"
       down_right_point="47.670203,105.87333"
       id="path-effect21"
       is_visible="true"
       lpeversion="1"
       deform_type="perspective"
       horizontal_mirror="false"
       vertical_mirror="false"
       overflow_perspective="false" /><linearGradient
       id="SVGID_1_"
       gradientTransform="scale(-1,1)"
       gradientUnits="userSpaceOnUse"
       x1="-96.680801"
       x2="-110.7736"
       y1="-108.3677"
       y2="-79.065697"><stop
         offset="0.3098"
         stop-color="#FCE8B2"
         id="stop1" /><stop
         offset="0.3987"
         stop-color="#FFCC80"
         id="stop2" /></linearGradient><linearGradient
       id="linearGradient4292"><stop
         id="stop4294"
         offset="0"
         style="stop-color:#411f5d;stop-opacity:1" /><stop
         id="stop4296"
         offset="1"
         style="stop-color:#5b2a85;stop-opacity:1" /></linearGradient><linearGradient
       id="linearGradient4284"><stop
         offset="0"
         style="stop-color:#8381c5;stop-opacity:1"
         id="stop4286" /><stop
         id="stop4290"
         style="stop-color:#7e55b3;stop-opacity:0.99607843"
         offset="0.56639391" /><stop
         offset="1"
         style="stop-color:#a52ecb;stop-opacity:0.99215686"
         id="stop4288" /></linearGradient><linearGradient
       id="linearGradient4898"><stop
         id="stop4278"
         style="stop-color:#bab8db;stop-opacity:1"
         offset="0" /><stop
         id="stop4280"
         style="stop-color:#5955a9;stop-opacity:0.99159664"
         offset="1" /></linearGradient><linearGradient
       id="linearGradient3294"><stop
         offset="0"
         style="stop-color:#6376e6;stop-opacity:1"
         id="stop3296" /><stop
         offset="0.50094414"
         style="stop-color:#222989;stop-opacity:1"
         id="stop3302" /><stop
         offset="1"
         style="stop-color:#00003d;stop-opacity:1"
         id="stop3298" /></linearGradient><linearGradient
       id="linearGradient3284"><stop
         offset="0"
         style="stop-color:#000000;stop-opacity:1"
         id="stop3286" /><stop
         offset="0.84845906"
         style="stop-color:#000000;stop-opacity:0.49803922"
         id="stop3292" /><stop
         offset="1"
         style="stop-color:#000000;stop-opacity:0"
         id="stop3288" /></linearGradient><linearGradient
       id="linearGradient3274"><stop
         offset="0"
         style="stop-color:#000000;stop-opacity:1"
         id="stop3276" /><stop
         offset="1"
         style="stop-color:#000000;stop-opacity:0"
         id="stop3278" /></linearGradient><linearGradient
       id="linearGradient3242"><stop
         offset="0"
         style="stop-color:#282828;stop-opacity:1"
         id="stop3244" /><stop
         offset="0.39253417"
         style="stop-color:#808080;stop-opacity:1"
         id="stop3252" /><stop
         offset="1"
         style="stop-color:#d9d9d9;stop-opacity:1"
         id="stop3246" /></linearGradient><linearGradient
       id="linearGradient3202"><stop
         offset="0"
         style="stop-color:#2b2b2b;stop-opacity:1"
         id="stop3204" /><stop
         offset="0.5"
         style="stop-color:#828383;stop-opacity:1"
         id="stop3250" /><stop
         offset="1"
         style="stop-color:#dadbdb;stop-opacity:1"
         id="stop3206" /></linearGradient><linearGradient
       id="linearGradient4966"><stop
         offset="0"
         style="stop-color:#b6b3d8;stop-opacity:1"
         id="stop4968" /><stop
         offset="1"
         style="stop-color:#b6b3d8;stop-opacity:0"
         id="stop4970" /></linearGradient><linearGradient
       id="linearGradient4876"><stop
         offset="0"
         style="stop-color:#d3d2e8;stop-opacity:1"
         id="stop4878" /><stop
         offset="1"
         style="stop-color:#5955a9;stop-opacity:0.99159664"
         id="stop4880" /></linearGradient><radialGradient
       gradientTransform="matrix(0.6817439,0,0,0.5905355,-3.8523706,-28.935273)"
       gradientUnits="userSpaceOnUse"
       xlink:href="#linearGradient4898"
       id="radialGradient4892"
       fy="-108.96888"
       fx="20.951529"
       r="266.76535"
       cy="-108.96888"
       cx="20.951529" /><radialGradient
       gradientTransform="matrix(1,0,0,0.1854103,0,383.88493)"
       gradientUnits="userSpaceOnUse"
       xlink:href="#linearGradient3274"
       id="radialGradient4944"
       fy="471.26172"
       fx="233.8876"
       r="170.49393"
       cy="471.26172"
       cx="233.8876" /><radialGradient
       gradientTransform="matrix(1,0,0,0.9121621,0,32.654948)"
       gradientUnits="userSpaceOnUse"
       xlink:href="#linearGradient4966"
       id="radialGradient4972"
       fy="371.76376"
       fx="299.70135"
       r="76.696358"
       cy="371.76376"
       cx="299.70135" /><radialGradient
       gradientTransform="matrix(0.414705,0.3300575,-0.5059004,0.6356454,346.95314,49.479585)"
       gradientUnits="userSpaceOnUse"
       xlink:href="#linearGradient3202"
       id="radialGradient3210"
       fy="390.45248"
       fx="289.44067"
       r="17.67668"
       cy="390.45248"
       cx="289.44067" /><radialGradient
       gradientTransform="matrix(0.414705,0.3300575,-0.5059004,0.6356454,448.41009,-65.398074)"
       gradientUnits="userSpaceOnUse"
       xlink:href="#linearGradient3202"
       id="radialGradient3238"
       fy="382.14804"
       fx="283.50717"
       r="17.67668"
       cy="382.14804"
       cx="283.50717" /><radialGradient
       gradientTransform="matrix(-0.06556501,-0.05972176,1.6871024,-1.8521705,171.90774,540.51473)"
       gradientUnits="userSpaceOnUse"
       xlink:href="#linearGradient3242"
       id="radialGradient3248"
       fy="181.18982"
       fx="418.45551"
       r="63.068935"
       cy="181.18982"
       cx="418.45551" /><radialGradient
       gradientTransform="matrix(0.4055116,-0.03344012,0.1034174,4.3988695,177.23251,-1191.6649)"
       gradientUnits="userSpaceOnUse"
       xlink:href="#linearGradient3274"
       id="radialGradient3268"
       fy="357.33591"
       fx="354.51709"
       r="33.712105"
       cy="357.33591"
       cx="354.51709" /><radialGradient
       gradientTransform="matrix(-0.1339874,-0.1146812,0.3079048,-0.3597394,444.23592,395.03849)"
       gradientUnits="userSpaceOnUse"
       xlink:href="#linearGradient3274"
       id="radialGradient3280"
       fy="223.55537"
       fx="510.58469"
       r="132.28336"
       cy="223.55537"
       cx="510.58469" /><radialGradient
       gradientTransform="matrix(-1.2497569,1.3798305,-0.09628946,-0.07297448,674.3826,-70.590682)"
       gradientUnits="userSpaceOnUse"
       xlink:href="#linearGradient3284"
       id="radialGradient3290"
       fy="-158.17821"
       fx="284.4671"
       r="110.2972"
       cy="-158.17821"
       cx="284.4671" /><radialGradient
       gradientTransform="matrix(-0.1008165,-0.08087232,1.0745309,-1.3395252,13.843287,784.79288)"
       gradientUnits="userSpaceOnUse"
       xlink:href="#linearGradient3294"
       id="radialGradient3300"
       fy="356.62274"
       fx="425.51019"
       r="143.34167"
       cy="356.62274"
       cx="425.51019" /><filter
       height="1.1062305"
       y="-0.053115234"
       width="1.1073157"
       x="-0.053657863"
       id="filter4350"
       style="color-interpolation-filters:sRGB"><feGaussianBlur
         id="feGaussianBlur4352"
         stdDeviation="8.7848425" /></filter><linearGradient
       y2="300.73987"
       x2="236.61363"
       y1="-161.8512"
       x1="-122.20192"
       spreadMethod="pad"
       gradientTransform="matrix(0.87385837,0,0,0.82818057,246.00762,250.28138)"
       gradientUnits="userSpaceOnUse"
       id="linearGradient4245"
       xlink:href="#linearGradient4284" /><linearGradient
       y2="66.018341"
       x2="173.94518"
       y1="396.6066"
       x1="447.80933"
       gradientTransform="matrix(0.98684959,0,0,0.98684959,3.0344187,2.5250397)"
       gradientUnits="userSpaceOnUse"
       id="linearGradient4247"
       xlink:href="#linearGradient4292" /><linearGradient
       inkscape:collect="always"
       xlink:href="#linearGradient1"
       id="linearGradient4"
       x1="28.285743"
       y1="63.662296"
       x2="100.7223"
       y2="63.662296"
       gradientUnits="userSpaceOnUse"
       gradientTransform="translate(-5.1190927,-0.63455699)" /></defs><g
     id="text1"><path
       style="-inkscape-font-specification:'Fira Sans Semi-Bold';fill:url(#linearGradient4);stroke-linejoin:round;paint-order:markers stroke fill"
       d="m 25.207031,30.269531 a 7.9372937,7.9372937 0 0 0 -7.9375,7.9375 v 49.427735 a 7.9372937,7.9372937 0 0 0 7.9375,7.9375 h 10.5 a 7.9372937,7.9372937 0 0 0 7.935547,-7.9375 V 73.927734 h 0.484375 v 13.707032 a 7.9372937,7.9372937 0 0 0 7.935547,7.9375 h 10.5 a 7.9372937,7.9372937 0 0 0 5.976562,-3.203125 c 4.522735,2.749236 9.779227,4.345703 15.310547,4.345703 4.630037,0 9.059038,-0.808085 13.039063,-2.69336 a 7.9372937,7.9372937 0 0 0 0.103515,-0.04883 c 3.795113,-1.864265 7.126123,-4.674426 9.357423,-8.265625 2.20404,-3.475588 3.36523,-7.604713 3.36523,-11.714844 0,-4.595127 -1.49631,-9.296468 -4.52148,-12.865234 1.92981,-3.09893 2.94922,-6.761161 2.94922,-10.349609 0,-3.692902 -1.11208,-7.451532 -3.15625,-10.546875 -2.10472,-3.254521 -5.255733,-5.699375 -8.718752,-7.240235 -3.605674,-1.672319 -7.57126,-2.363281 -11.703125,-2.363281 -5.474156,0 -10.75311,1.572873 -15.412109,4.328125 A 7.9372937,7.9372937 0 0 0 62.5625,30.269531 h -10.5 a 7.9372937,7.9372937 0 0 0 -7.935547,7.9375 v 11.5625 h -0.484375 v -11.5625 a 7.9372937,7.9372937 0 0 0 -7.935547,-7.9375 z m 68.41211,11.449219 0.115234,0.101562 c -0.01968,-0.01731 -0.04274,-0.02775 -0.0625,-0.04492 -0.01949,-0.01673 -0.03313,-0.04006 -0.05273,-0.05664 z M 70.5,56.761719 a 7.9372937,7.9372937 0 0 0 2.009766,0.916015 l -1.199219,7.054688 A 7.9372937,7.9372937 0 0 0 72.423828,68.8125 7.9372937,7.9372937 0 0 0 70.5,69.576172 Z m 14.058594,9.841797 a 7.9372937,7.9372937 0 0 0 0.40039,0.253906 h -1.966797 c 0.512518,0 1.043053,-0.207703 1.566407,-0.253906 z m 9.992187,18.11914 -0.0957,0.08789 c 0.01548,-0.01399 0.0256,-0.03281 0.04102,-0.04687 0.01696,-0.01566 0.0378,-0.02525 0.05469,-0.04102 z"
       id="path1" /><path
       style="-inkscape-font-specification:'Fira Sans Semi-Bold';fill:#ffffff;stroke-linejoin:round;paint-order:markers stroke fill"
       d="M 52.063467,87.634933 V 65.992069 H 35.706319 V 87.634933 H 25.206315 V 38.206345 H 35.706319 V 57.706352 H 52.063467 V 38.206345 H 62.563471 V 87.634933 Z M 84.563522,38.563488 q 4.928573,0 8.428574,1.642857 3.57143,1.57143 5.357145,4.357145 1.857139,2.785715 1.857139,6.214288 0,4.357144 -2.499997,7.285717 -2.5,2.857143 -6.928573,4.07143 4.857144,0.5 7.928574,3.500001 3.071426,3.000001 3.071426,8.357146 0,4.142858 -2.142854,7.500002 -2.07143,3.357144 -6.14286,5.357145 -4.07143,1.928572 -9.64286,1.928572 -10.21429,0 -16.000006,-7.14286 l 5.500002,-5.285716 q 2.428572,2.428573 4.785716,3.500001 2.357144,1.071429 5.142859,1.071429 3.714287,0 5.857145,-2 2.214286,-2.000001 2.214286,-5.571431 0,-3.857144 -2.071429,-5.57143 -2.071429,-1.714287 -6.214288,-1.714287 h -3.928573 l 1.214286,-7.142859 h 2.642859 q 3.357144,0 5.357144,-1.785715 2.000001,-1.785715 2.000001,-5.000002 0,-2.785715 -1.857144,-4.357144 -1.785714,-1.571429 -4.928573,-1.571429 -2.714286,0 -5.000001,1 -2.285716,1 -4.500002,3.142858 l -5.07143,-5.500002 q 6.642859,-6.285716 15.571434,-6.285716 z"
       id="path2" /></g></svg>
