<?xml version="1.0" encoding="UTF-8" standalone="no"?>
<svg
   viewBox="0 0 126.98413 126.98413"
   version="1.1"
   id="svg15"
   sodipodi:docname="link.svg"
   xml:space="preserve"
   inkscape:version="1.4 (e7c3feb100, 2024-10-09)"
   width="16"
   height="16"
   xmlns:inkscape="http://www.inkscape.org/namespaces/inkscape"
   xmlns:sodipodi="http://sodipodi.sourceforge.net/DTD/sodipodi-0.dtd"
   xmlns:xlink="http://www.w3.org/1999/xlink"
   xmlns="http://www.w3.org/2000/svg"
   xmlns:svg="http://www.w3.org/2000/svg"><g
     id="text1"
     transform="matrix(7.9365081,0,0,7.9365081,12.354291,50.595239)"><path
       style="-inkscape-font-specification:'Symbols Nerd Font';fill:url(#linearGradient4);stroke-linecap:square;stroke-linejoin:round;paint-order:markers stroke fill"
       d="m 9.0683594,-5.2753906 c -0.5636779,0 -1.1318559,0.1152903 -1.6523438,0.3359375 -0.5096824,0.212335 -0.980031,0.5249529 -1.3710937,0.9160156 l -0.9375,0.9375 a 1.650165,1.650165 0 0 0 -0.042969,0.042969 c -0.3245189,0.3494818 -0.5065387,0.8907504 -0.5429687,1.3808594 -0.1581084,0.04582 -0.3291229,0.033497 -0.4804688,0.097656 -0.5096825,0.212335 -0.980031,0.5249528 -1.3710937,0.9160156 l -1.87500003,1.875 C 0.40532542,1.616159 0.09086886,2.0821407 -0.125,2.5878906 a 1.650165,1.650165 0 0 0 -0.005859,0.015625 C -0.34638456,3.1233118 -0.45703125,3.6890368 -0.45703125,4.25 c 0,0.5670072 0.11533313,1.1370087 0.3359375,1.6601562 a 1.650165,1.650165 0 0 0 0.005859,0.015625 c 0.21602758,0.4980637 0.52345862,0.9609587 0.91015624,1.3476563 0.38826333,0.3882633 0.85578673,0.6937777 1.35742193,0.90625 0.5236976,0.225628 1.0962989,0.3457031 1.6660156,0.3457031 0.5636779,0 1.1318558,-0.1152903 1.6523437,-0.3359375 0.5096824,-0.212335 0.9800311,-0.5249529 1.3710938,-0.9160156 l 0.234375,-0.234375 0.46875,-0.46875 0.234375,-0.234375 a 1.650165,1.650165 0 0 0 0.042969,-0.042969 c 0.32317,-0.348029 0.5031597,-0.8865695 0.5410157,-1.375 0.156775,-0.044528 0.3261509,-0.031384 0.4765625,-0.09375 a 1.650165,1.650165 0 0 0 0.015625,-0.00586 C 9.3612185,4.6024905 9.8272005,4.2880338 10.216797,3.8984375 l 1.875,-1.875 C 12.482861,1.6323743 12.795478,1.1620277 13.007813,0.65234375 13.22846,0.13185591 13.34375,-0.4363222 13.34375,-1 c 0,-0.5697161 -0.120076,-1.1423182 -0.345703,-1.6660156 -0.212473,-0.5016357 -0.517986,-0.9691585 -0.90625,-1.3574219 -0.388263,-0.3882637 -0.855787,-0.6937776 -1.357422,-0.90625 -0.523698,-0.2256279 -1.096299,-0.3457031 -1.6660156,-0.3457031 z m -1.7285157,3.7070312 0.015625,0.00586 c -0.00307,-0.00131 -0.00669,-6.499e-4 -0.00977,-0.00195 -0.00218,-9.068e-4 -0.00368,-0.003 -0.00586,-0.00391 z"
       id="path4" /><path
       style="-inkscape-font-specification:'Symbols Nerd Font';fill:#ffffff;stroke-linecap:square;stroke-linejoin:round;paint-order:markers stroke fill"
       d="m 6.2734375,-1.9199219 0.9375,-0.9375 q 0.3632812,-0.3632812 0.84375,-0.5625 Q 8.5351563,-3.625 9.0683594,-3.625 q 0.5332031,0 1.0195316,0.2109375 0.486328,0.2050781 0.83789,0.5566406 0.351563,0.3515625 0.556641,0.8378906 0.210937,0.4863282 0.210937,1.0195313 0,0.53320312 -0.205078,1.01367188 -0.199218,0.48046875 -0.5625,0.84375 L 9.0507813,2.7324219 Q 8.6875,3.0957031 8.2070313,3.3007813 7.7265625,3.5 7.1933594,3.5 6.6601562,3.5 6.1796875,3.3007813 5.6992187,3.0957031 5.3359375,2.7324219 5.1835937,2.5683594 5.1835937,2.3457031 q 0,-0.2285156 0.1640625,-0.3925781 0.1699219,-0.1699219 0.3984375,-0.1699219 0.2226563,0 0.3867188,0.1523438 Q 6.5722656,2.375 7.1933594,2.375 q 0.6210937,0 1.0605469,-0.4394531 0,0 0.46875,-0.46875 l 0.9375,-0.93750003 0.4687497,-0.46875 q 0.410157,-0.43359375 0.410157,-1.03125 0,-0.62109377 -0.439454,-1.06054687 -0.4394527,-0.4394531 -1.0605465,-0.4394531 -0.5976562,0 -1.03125,0.4101562 l -0.9375,0.9375 q -0.1640625,0.15234377 -0.3867188,0.15234377 -0.2285156,0 -0.3984375,-0.16406247 -0.1640625,-0.1699219 -0.1640625,-0.3984375 0,-0.2226563 0.1523438,-0.3867188 z M 2.7578125,5.3105469 Q 3.1972656,5.75 3.8183594,5.75 q 0.6210937,0 1.0605468,-0.4394531 0,0 0.234375,-0.234375 l 0.46875,-0.46875 0.234375,-0.234375 Q 5.9804687,4.2207031 6.203125,4.2207031 q 0.2285156,0 0.3925781,0.1699219 0.1699219,0.1640625 0.1699219,0.3925781 0,0.2226563 -0.1523438,0.3867188 0,0 -0.234375,0.234375 l -0.46875,0.46875 -0.234375,0.234375 Q 5.3125,6.4707031 4.8320312,6.6699219 4.3515625,6.875 3.8183594,6.875 3.2851563,6.875 2.7988281,6.6640625 2.3125,6.4589844 1.9609375,6.1074219 1.609375,5.7558594 1.3984375,5.2695312 1.1933594,4.7832031 1.1933594,4.25 q 0,-0.5332031 0.1992187,-1.0136719 0.2050781,-0.4804687 0.5683594,-0.84375 l 1.875,-1.87499998 Q 4.1992187,0.15429687 4.6796875,-0.04492187 5.1601562,-0.25 5.6933594,-0.25 q 0.5332031,0 1.0136718,0.20507813 0.4804688,0.19921874 0.84375,0.56249999 0.1523438,0.1640625 0.1523438,0.38671876 0,0.22851562 -0.1699219,0.39843752 -0.1640625,0.1640625 -0.3925781,0.1640625 -0.2226563,0 -0.3867188,-0.1523438 Q 6.3144531,0.875 5.6933594,0.875 q -0.6210938,0 -1.0605469,0.4394531 0,0 -0.46875,0.46875 l -0.9375,0.9375 -0.46875,0.46875 Q 2.3183594,3.6289063 2.3183594,4.25 q 0,0.6210937 0.4394531,1.0605469 z"
       id="path5" /></g><sodipodi:namedview
     id="namedview15"
     pagecolor="#505050"
     bordercolor="#ffffff"
     borderopacity="1"
     inkscape:showpageshadow="0"
     inkscape:pageopacity="0"
     inkscape:pagecheckerboard="1"
     inkscape:deskcolor="#505050"
     inkscape:zoom="22.627417"
     inkscape:cx="9.8332037"
     inkscape:cy="6.363961"
     inkscape:window-width="1840"
     inkscape:window-height="1011"
     inkscape:window-x="0"
     inkscape:window-y="0"
     inkscape:window-maximized="1"
     inkscape:current-layer="svg15"
     showguides="false" /><defs
     id="defs2"><linearGradient
       id="linearGradient1"
       inkscape:collect="always"><stop
         style="stop-color:#411f5d;stop-opacity:1;"
         offset="0"
         id="stop3" /><stop
         style="stop-color:#5b2a85;stop-opacity:1;"
         offset="1"
         id="stop4" /></linearGradient><rect
       x="1.1875"
       y="1.625"
       width="14.375"
       height="12.8125"
       id="rect1" /><inkscape:path-effect
       effect="perspective-envelope"
       up_left_point="98.717368,91.305595"
       up_right_point="106.52828,87.788974"
       down_left_point="98.690893,96.103429"
       down_right_point="106.4027,91.51207"
       id="path-effect24"
       is_visible="true"
       lpeversion="1"
       deform_type="perspective"
       horizontal_mirror="false"
       vertical_mirror="false"
       overflow_perspective="false" /><inkscape:path-effect
       effect="perspective-envelope"
       up_left_point="14.565835,48.444372"
       up_right_point="48.754949,60.738157"
       down_left_point="13.300298,90.144513"
       down_right_point="47.670203,105.87333"
       id="path-effect21"
       is_visible="true"
       lpeversion="1"
       deform_type="perspective"
       horizontal_mirror="false"
       vertical_mirror="false"
       overflow_perspective="false" /><linearGradient
       id="SVGID_1_"
       gradientTransform="scale(-1,1)"
       gradientUnits="userSpaceOnUse"
       x1="-96.680801"
       x2="-110.7736"
       y1="-108.3677"
       y2="-79.065697"><stop
         offset="0.3098"
         stop-color="#FCE8B2"
         id="stop1" /><stop
         offset="0.3987"
         stop-color="#FFCC80"
         id="stop2" /></linearGradient><linearGradient
       id="linearGradient4292"><stop
         id="stop4294"
         offset="0"
         style="stop-color:#411f5d;stop-opacity:1" /><stop
         id="stop4296"
         offset="1"
         style="stop-color:#5b2a85;stop-opacity:1" /></linearGradient><linearGradient
       id="linearGradient4284"><stop
         offset="0"
         style="stop-color:#8381c5;stop-opacity:1"
         id="stop4286" /><stop
         id="stop4290"
         style="stop-color:#7e55b3;stop-opacity:0.99607843"
         offset="0.56639391" /><stop
         offset="1"
         style="stop-color:#a52ecb;stop-opacity:0.99215686"
         id="stop4288" /></linearGradient><linearGradient
       id="linearGradient4898"><stop
         id="stop4278"
         style="stop-color:#bab8db;stop-opacity:1"
         offset="0" /><stop
         id="stop4280"
         style="stop-color:#5955a9;stop-opacity:0.99159664"
         offset="1" /></linearGradient><linearGradient
       id="linearGradient3294"><stop
         offset="0"
         style="stop-color:#6376e6;stop-opacity:1"
         id="stop3296" /><stop
         offset="0.50094414"
         style="stop-color:#222989;stop-opacity:1"
         id="stop3302" /><stop
         offset="1"
         style="stop-color:#00003d;stop-opacity:1"
         id="stop3298" /></linearGradient><linearGradient
       id="linearGradient3284"><stop
         offset="0"
         style="stop-color:#000000;stop-opacity:1"
         id="stop3286" /><stop
         offset="0.84845906"
         style="stop-color:#000000;stop-opacity:0.49803922"
         id="stop3292" /><stop
         offset="1"
         style="stop-color:#000000;stop-opacity:0"
         id="stop3288" /></linearGradient><linearGradient
       id="linearGradient3274"><stop
         offset="0"
         style="stop-color:#000000;stop-opacity:1"
         id="stop3276" /><stop
         offset="1"
         style="stop-color:#000000;stop-opacity:0"
         id="stop3278" /></linearGradient><linearGradient
       id="linearGradient3242"><stop
         offset="0"
         style="stop-color:#282828;stop-opacity:1"
         id="stop3244" /><stop
         offset="0.39253417"
         style="stop-color:#808080;stop-opacity:1"
         id="stop3252" /><stop
         offset="1"
         style="stop-color:#d9d9d9;stop-opacity:1"
         id="stop3246" /></linearGradient><linearGradient
       id="linearGradient3202"><stop
         offset="0"
         style="stop-color:#2b2b2b;stop-opacity:1"
         id="stop3204" /><stop
         offset="0.5"
         style="stop-color:#828383;stop-opacity:1"
         id="stop3250" /><stop
         offset="1"
         style="stop-color:#dadbdb;stop-opacity:1"
         id="stop3206" /></linearGradient><linearGradient
       id="linearGradient4966"><stop
         offset="0"
         style="stop-color:#b6b3d8;stop-opacity:1"
         id="stop4968" /><stop
         offset="1"
         style="stop-color:#b6b3d8;stop-opacity:0"
         id="stop4970" /></linearGradient><linearGradient
       id="linearGradient4876"><stop
         offset="0"
         style="stop-color:#d3d2e8;stop-opacity:1"
         id="stop4878" /><stop
         offset="1"
         style="stop-color:#5955a9;stop-opacity:0.99159664"
         id="stop4880" /></linearGradient><radialGradient
       gradientTransform="matrix(0.6817439,0,0,0.5905355,-3.8523706,-28.935273)"
       gradientUnits="userSpaceOnUse"
       xlink:href="#linearGradient4898"
       id="radialGradient4892"
       fy="-108.96888"
       fx="20.951529"
       r="266.76535"
       cy="-108.96888"
       cx="20.951529" /><radialGradient
       gradientTransform="matrix(1,0,0,0.1854103,0,383.88493)"
       gradientUnits="userSpaceOnUse"
       xlink:href="#linearGradient3274"
       id="radialGradient4944"
       fy="471.26172"
       fx="233.8876"
       r="170.49393"
       cy="471.26172"
       cx="233.8876" /><radialGradient
       gradientTransform="matrix(1,0,0,0.9121621,0,32.654948)"
       gradientUnits="userSpaceOnUse"
       xlink:href="#linearGradient4966"
       id="radialGradient4972"
       fy="371.76376"
       fx="299.70135"
       r="76.696358"
       cy="371.76376"
       cx="299.70135" /><radialGradient
       gradientTransform="matrix(0.414705,0.3300575,-0.5059004,0.6356454,346.95314,49.479585)"
       gradientUnits="userSpaceOnUse"
       xlink:href="#linearGradient3202"
       id="radialGradient3210"
       fy="390.45248"
       fx="289.44067"
       r="17.67668"
       cy="390.45248"
       cx="289.44067" /><radialGradient
       gradientTransform="matrix(0.414705,0.3300575,-0.5059004,0.6356454,448.41009,-65.398074)"
       gradientUnits="userSpaceOnUse"
       xlink:href="#linearGradient3202"
       id="radialGradient3238"
       fy="382.14804"
       fx="283.50717"
       r="17.67668"
       cy="382.14804"
       cx="283.50717" /><radialGradient
       gradientTransform="matrix(-0.06556501,-0.05972176,1.6871024,-1.8521705,171.90774,540.51473)"
       gradientUnits="userSpaceOnUse"
       xlink:href="#linearGradient3242"
       id="radialGradient3248"
       fy="181.18982"
       fx="418.45551"
       r="63.068935"
       cy="181.18982"
       cx="418.45551" /><radialGradient
       gradientTransform="matrix(0.4055116,-0.03344012,0.1034174,4.3988695,177.23251,-1191.6649)"
       gradientUnits="userSpaceOnUse"
       xlink:href="#linearGradient3274"
       id="radialGradient3268"
       fy="357.33591"
       fx="354.51709"
       r="33.712105"
       cy="357.33591"
       cx="354.51709" /><radialGradient
       gradientTransform="matrix(-0.1339874,-0.1146812,0.3079048,-0.3597394,444.23592,395.03849)"
       gradientUnits="userSpaceOnUse"
       xlink:href="#linearGradient3274"
       id="radialGradient3280"
       fy="223.55537"
       fx="510.58469"
       r="132.28336"
       cy="223.55537"
       cx="510.58469" /><radialGradient
       gradientTransform="matrix(-1.2497569,1.3798305,-0.09628946,-0.07297448,674.3826,-70.590682)"
       gradientUnits="userSpaceOnUse"
       xlink:href="#linearGradient3284"
       id="radialGradient3290"
       fy="-158.17821"
       fx="284.4671"
       r="110.2972"
       cy="-158.17821"
       cx="284.4671" /><radialGradient
       gradientTransform="matrix(-0.1008165,-0.08087232,1.0745309,-1.3395252,13.843287,784.79288)"
       gradientUnits="userSpaceOnUse"
       xlink:href="#linearGradient3294"
       id="radialGradient3300"
       fy="356.62274"
       fx="425.51019"
       r="143.34167"
       cy="356.62274"
       cx="425.51019" /><filter
       height="1.1062305"
       y="-0.053115234"
       width="1.1073157"
       x="-0.053657863"
       id="filter4350"
       style="color-interpolation-filters:sRGB"><feGaussianBlur
         id="feGaussianBlur4352"
         stdDeviation="8.7848425" /></filter><linearGradient
       y2="300.73987"
       x2="236.61363"
       y1="-161.8512"
       x1="-122.20192"
       spreadMethod="pad"
       gradientTransform="matrix(0.87385837,0,0,0.82818057,246.00762,250.28138)"
       gradientUnits="userSpaceOnUse"
       id="linearGradient4245"
       xlink:href="#linearGradient4284" /><linearGradient
       y2="66.018341"
       x2="173.94518"
       y1="396.6066"
       x1="447.80933"
       gradientTransform="matrix(0.98684959,0,0,0.98684959,3.0344187,2.5250397)"
       gradientUnits="userSpaceOnUse"
       id="linearGradient4247"
       xlink:href="#linearGradient4292" /><linearGradient
       inkscape:collect="always"
       xlink:href="#linearGradient1"
       id="linearGradient4"
       x1="-0.4566406"
       y1="1.625"
       x2="13.343359"
       y2="1.625"
       gradientUnits="userSpaceOnUse" /></defs></svg>
