<?xml version="1.0" encoding="UTF-8" standalone="no"?>
<svg
   viewBox="0 0 126.98413 126.98413"
   version="1.1"
   id="svg15"
   sodipodi:docname="list.svg"
   xml:space="preserve"
   inkscape:version="1.4 (e7c3feb100, 2024-10-09)"
   width="16"
   height="16"
   xmlns:inkscape="http://www.inkscape.org/namespaces/inkscape"
   xmlns:sodipodi="http://sodipodi.sourceforge.net/DTD/sodipodi-0.dtd"
   xmlns:xlink="http://www.w3.org/1999/xlink"
   xmlns="http://www.w3.org/2000/svg"
   xmlns:svg="http://www.w3.org/2000/svg"><sodipodi:namedview
     id="namedview15"
     pagecolor="#505050"
     bordercolor="#ffffff"
     borderopacity="1"
     inkscape:showpageshadow="0"
     inkscape:pageopacity="0"
     inkscape:pagecheckerboard="1"
     inkscape:deskcolor="#505050"
     inkscape:zoom="31.289475"
     inkscape:cx="8.6131199"
     inkscape:cy="5.5290157"
     inkscape:window-width="1840"
     inkscape:window-height="1011"
     inkscape:window-x="0"
     inkscape:window-y="0"
     inkscape:window-maximized="1"
     inkscape:current-layer="g5" /><defs
     id="defs2"><linearGradient
       id="linearGradient1"
       inkscape:collect="always"><stop
         style="stop-color:#411f5d;stop-opacity:1;"
         offset="0"
         id="stop3" /><stop
         style="stop-color:#5b2a85;stop-opacity:1;"
         offset="1"
         id="stop4" /></linearGradient><inkscape:path-effect
       effect="perspective-envelope"
       up_left_point="98.717368,91.305595"
       up_right_point="106.52828,87.788974"
       down_left_point="98.690893,96.103429"
       down_right_point="106.4027,91.51207"
       id="path-effect24"
       is_visible="true"
       lpeversion="1"
       deform_type="perspective"
       horizontal_mirror="false"
       vertical_mirror="false"
       overflow_perspective="false" /><inkscape:path-effect
       effect="perspective-envelope"
       up_left_point="14.565835,48.444372"
       up_right_point="48.754949,60.738157"
       down_left_point="13.300298,90.144513"
       down_right_point="47.670203,105.87333"
       id="path-effect21"
       is_visible="true"
       lpeversion="1"
       deform_type="perspective"
       horizontal_mirror="false"
       vertical_mirror="false"
       overflow_perspective="false" /><linearGradient
       id="SVGID_1_"
       gradientTransform="scale(-1,1)"
       gradientUnits="userSpaceOnUse"
       x1="-96.680801"
       x2="-110.7736"
       y1="-108.3677"
       y2="-79.065697"><stop
         offset="0.3098"
         stop-color="#FCE8B2"
         id="stop1" /><stop
         offset="0.3987"
         stop-color="#FFCC80"
         id="stop2" /></linearGradient><linearGradient
       id="linearGradient4292"><stop
         id="stop4294"
         offset="0"
         style="stop-color:#411f5d;stop-opacity:1" /><stop
         id="stop4296"
         offset="1"
         style="stop-color:#5b2a85;stop-opacity:1" /></linearGradient><linearGradient
       id="linearGradient4284"><stop
         offset="0"
         style="stop-color:#8381c5;stop-opacity:1"
         id="stop4286" /><stop
         id="stop4290"
         style="stop-color:#7e55b3;stop-opacity:0.99607843"
         offset="0.56639391" /><stop
         offset="1"
         style="stop-color:#a52ecb;stop-opacity:0.99215686"
         id="stop4288" /></linearGradient><linearGradient
       id="linearGradient4898"><stop
         id="stop4278"
         style="stop-color:#bab8db;stop-opacity:1"
         offset="0" /><stop
         id="stop4280"
         style="stop-color:#5955a9;stop-opacity:0.99159664"
         offset="1" /></linearGradient><linearGradient
       id="linearGradient3294"><stop
         offset="0"
         style="stop-color:#6376e6;stop-opacity:1"
         id="stop3296" /><stop
         offset="0.50094414"
         style="stop-color:#222989;stop-opacity:1"
         id="stop3302" /><stop
         offset="1"
         style="stop-color:#00003d;stop-opacity:1"
         id="stop3298" /></linearGradient><linearGradient
       id="linearGradient3284"><stop
         offset="0"
         style="stop-color:#000000;stop-opacity:1"
         id="stop3286" /><stop
         offset="0.84845906"
         style="stop-color:#000000;stop-opacity:0.49803922"
         id="stop3292" /><stop
         offset="1"
         style="stop-color:#000000;stop-opacity:0"
         id="stop3288" /></linearGradient><linearGradient
       id="linearGradient3274"><stop
         offset="0"
         style="stop-color:#000000;stop-opacity:1"
         id="stop3276" /><stop
         offset="1"
         style="stop-color:#000000;stop-opacity:0"
         id="stop3278" /></linearGradient><linearGradient
       id="linearGradient3242"><stop
         offset="0"
         style="stop-color:#282828;stop-opacity:1"
         id="stop3244" /><stop
         offset="0.39253417"
         style="stop-color:#808080;stop-opacity:1"
         id="stop3252" /><stop
         offset="1"
         style="stop-color:#d9d9d9;stop-opacity:1"
         id="stop3246" /></linearGradient><linearGradient
       id="linearGradient3202"><stop
         offset="0"
         style="stop-color:#2b2b2b;stop-opacity:1"
         id="stop3204" /><stop
         offset="0.5"
         style="stop-color:#828383;stop-opacity:1"
         id="stop3250" /><stop
         offset="1"
         style="stop-color:#dadbdb;stop-opacity:1"
         id="stop3206" /></linearGradient><linearGradient
       id="linearGradient4966"><stop
         offset="0"
         style="stop-color:#b6b3d8;stop-opacity:1"
         id="stop4968" /><stop
         offset="1"
         style="stop-color:#b6b3d8;stop-opacity:0"
         id="stop4970" /></linearGradient><linearGradient
       id="linearGradient4876"><stop
         offset="0"
         style="stop-color:#d3d2e8;stop-opacity:1"
         id="stop4878" /><stop
         offset="1"
         style="stop-color:#5955a9;stop-opacity:0.99159664"
         id="stop4880" /></linearGradient><radialGradient
       gradientTransform="matrix(0.6817439,0,0,0.5905355,-3.8523706,-28.935273)"
       gradientUnits="userSpaceOnUse"
       xlink:href="#linearGradient4898"
       id="radialGradient4892"
       fy="-108.96888"
       fx="20.951529"
       r="266.76535"
       cy="-108.96888"
       cx="20.951529" /><radialGradient
       gradientTransform="matrix(1,0,0,0.1854103,0,383.88493)"
       gradientUnits="userSpaceOnUse"
       xlink:href="#linearGradient3274"
       id="radialGradient4944"
       fy="471.26172"
       fx="233.8876"
       r="170.49393"
       cy="471.26172"
       cx="233.8876" /><radialGradient
       gradientTransform="matrix(1,0,0,0.9121621,0,32.654948)"
       gradientUnits="userSpaceOnUse"
       xlink:href="#linearGradient4966"
       id="radialGradient4972"
       fy="371.76376"
       fx="299.70135"
       r="76.696358"
       cy="371.76376"
       cx="299.70135" /><radialGradient
       gradientTransform="matrix(0.414705,0.3300575,-0.5059004,0.6356454,346.95314,49.479585)"
       gradientUnits="userSpaceOnUse"
       xlink:href="#linearGradient3202"
       id="radialGradient3210"
       fy="390.45248"
       fx="289.44067"
       r="17.67668"
       cy="390.45248"
       cx="289.44067" /><radialGradient
       gradientTransform="matrix(0.414705,0.3300575,-0.5059004,0.6356454,448.41009,-65.398074)"
       gradientUnits="userSpaceOnUse"
       xlink:href="#linearGradient3202"
       id="radialGradient3238"
       fy="382.14804"
       fx="283.50717"
       r="17.67668"
       cy="382.14804"
       cx="283.50717" /><radialGradient
       gradientTransform="matrix(-0.06556501,-0.05972176,1.6871024,-1.8521705,171.90774,540.51473)"
       gradientUnits="userSpaceOnUse"
       xlink:href="#linearGradient3242"
       id="radialGradient3248"
       fy="181.18982"
       fx="418.45551"
       r="63.068935"
       cy="181.18982"
       cx="418.45551" /><radialGradient
       gradientTransform="matrix(0.4055116,-0.03344012,0.1034174,4.3988695,177.23251,-1191.6649)"
       gradientUnits="userSpaceOnUse"
       xlink:href="#linearGradient3274"
       id="radialGradient3268"
       fy="357.33591"
       fx="354.51709"
       r="33.712105"
       cy="357.33591"
       cx="354.51709" /><radialGradient
       gradientTransform="matrix(-0.1339874,-0.1146812,0.3079048,-0.3597394,444.23592,395.03849)"
       gradientUnits="userSpaceOnUse"
       xlink:href="#linearGradient3274"
       id="radialGradient3280"
       fy="223.55537"
       fx="510.58469"
       r="132.28336"
       cy="223.55537"
       cx="510.58469" /><radialGradient
       gradientTransform="matrix(-1.2497569,1.3798305,-0.09628946,-0.07297448,674.3826,-70.590682)"
       gradientUnits="userSpaceOnUse"
       xlink:href="#linearGradient3284"
       id="radialGradient3290"
       fy="-158.17821"
       fx="284.4671"
       r="110.2972"
       cy="-158.17821"
       cx="284.4671" /><radialGradient
       gradientTransform="matrix(-0.1008165,-0.08087232,1.0745309,-1.3395252,13.843287,784.79288)"
       gradientUnits="userSpaceOnUse"
       xlink:href="#linearGradient3294"
       id="radialGradient3300"
       fy="356.62274"
       fx="425.51019"
       r="143.34167"
       cy="356.62274"
       cx="425.51019" /><filter
       height="1.1062305"
       y="-0.053115234"
       width="1.1073157"
       x="-0.053657863"
       id="filter4350"
       style="color-interpolation-filters:sRGB"><feGaussianBlur
         id="feGaussianBlur4352"
         stdDeviation="8.7848425" /></filter><linearGradient
       y2="300.73987"
       x2="236.61363"
       y1="-161.8512"
       x1="-122.20192"
       spreadMethod="pad"
       gradientTransform="matrix(0.87385837,0,0,0.82818057,246.00762,250.28138)"
       gradientUnits="userSpaceOnUse"
       id="linearGradient4245"
       xlink:href="#linearGradient4284" /><linearGradient
       y2="66.018341"
       x2="173.94518"
       y1="396.6066"
       x1="447.80933"
       gradientTransform="matrix(0.98684959,0,0,0.98684959,3.0344187,2.5250397)"
       gradientUnits="userSpaceOnUse"
       id="linearGradient4247"
       xlink:href="#linearGradient4292" /><linearGradient
       inkscape:collect="always"
       xlink:href="#linearGradient1"
       id="linearGradient4"
       x1="28.285743"
       y1="63.662296"
       x2="100.7223"
       y2="63.662296"
       gradientUnits="userSpaceOnUse"
       gradientTransform="matrix(1.2537987,0,0,1.2537987,-24.636911,-76.919484)" /><linearGradient
       inkscape:collect="always"
       xlink:href="#linearGradient1"
       id="linearGradient2"
       gradientUnits="userSpaceOnUse"
       gradientTransform="translate(-0.5072967,-35.003404)"
       x1="28.285743"
       y1="63.662296"
       x2="100.7223"
       y2="63.662296" /><linearGradient
       inkscape:collect="always"
       xlink:href="#linearGradient1"
       id="linearGradient5"
       gradientUnits="userSpaceOnUse"
       gradientTransform="matrix(1.2537987,0,0,1.2537987,-24.636911,-76.919484)"
       x1="28.285743"
       y1="63.662296"
       x2="100.7223"
       y2="63.662296" /><linearGradient
       inkscape:collect="always"
       xlink:href="#linearGradient1"
       id="linearGradient6"
       gradientUnits="userSpaceOnUse"
       gradientTransform="translate(-0.5072967,-35.003404)"
       x1="28.285743"
       y1="63.662296"
       x2="100.7223"
       y2="63.662296" /><linearGradient
       inkscape:collect="always"
       xlink:href="#linearGradient1"
       id="linearGradient7"
       gradientUnits="userSpaceOnUse"
       gradientTransform="matrix(1.2537987,0,0,1.2537987,-24.636911,-76.919484)"
       x1="28.285743"
       y1="63.662296"
       x2="100.7223"
       y2="63.662296" /><linearGradient
       inkscape:collect="always"
       xlink:href="#linearGradient1"
       id="linearGradient8"
       gradientUnits="userSpaceOnUse"
       gradientTransform="translate(-0.5072967,-35.003404)"
       x1="28.285743"
       y1="63.662296"
       x2="100.7223"
       y2="63.662296" /></defs><g
     id="g8"
     transform="translate(4.058365,2.9878297)"><g
       id="g5"
       transform="translate(-0.227385,4.3120135)"
       style="stroke-width:11.9048;paint-order:markers stroke fill"><g
         id="path2"><path
           style="-inkscape-font-specification:'Fira Sans';fill:url(#linearGradient4)"
           d="m 18.689453,15.166016 c -3.276147,0 -6.733262,1.371933 -9.0878905,3.726562 C 7.2469341,21.247207 5.875,24.702366 5.875,27.978516 c 0,3.276149 1.3465198,6.687673 3.625,9.080078 l 0.050781,0.05273 0.050781,0.05273 c 2.3340745,2.334072 5.7716505,3.744141 9.0878905,3.744141 3.336165,0 6.81691,-1.377456 9.183594,-3.744141 l 0.05078,-0.05273 0.05078,-0.05273 c 2.278482,-2.392404 3.625,-5.803927 3.625,-9.080078 0,-3.276152 -1.371933,-6.73131 -3.726562,-9.085938 -2.387238,-2.387242 -5.886185,-3.726562 -9.183594,-3.726562 z m 0,11.904296 c 0.682907,0 0.499323,-0.02607 0.765625,0.240235 0.298915,0.298914 0.238281,0.09648 0.238281,0.667969 0,0.518948 -0.03302,0.506152 -0.308593,0.791015 -0.194938,0.21062 -0.110258,0.234375 -0.695313,0.234375 -0.474199,0 -0.396285,-0.01392 -0.597656,-0.230469 -0.280128,-0.289592 -0.310547,-0.273313 -0.310547,-0.794921 0,-0.571489 -0.06063,-0.369056 0.238281,-0.667969 0.298916,-0.298915 0.09843,-0.240235 0.669922,-0.240235 z"
           id="path5" /><path
           style="-inkscape-font-specification:'Fira Sans';fill:#ffffff"
           d="m 18.688768,21.118407 c -1.923819,0 -3.551444,0.65561 -4.878216,1.982382 -1.326771,1.326771 -1.982382,2.954397 -1.982382,4.878216 0,1.923819 0.655611,3.582282 1.982382,4.975392 1.326772,1.32677 2.954397,2.001817 4.878216,2.001817 1.990158,0 3.648621,-0.675047 4.975391,-2.001817 1.326772,-1.39311 1.982384,-3.051573 1.982384,-4.975392 0,-1.923819 -0.655612,-3.551445 -1.982384,-4.878216 -1.32677,-1.326772 -2.985233,-1.982382 -4.975391,-1.982382 z"
           id="path8" /></g><g
         id="path1"><path
           style="-inkscape-font-specification:'Fira Sans';fill:url(#linearGradient2)"
           d="M 38.496094,19.378906 V 37.46875 H 113.44727 V 19.378906 Z"
           id="path9" /><path
           style="-inkscape-font-specification:'Fira Sans';fill:#ffffff"
           d="m 44.449402,25.332143 v 6.184896 H 107.494 v -6.184896 z"
           id="path10" /></g></g><g
       id="g4"
       transform="translate(-0.227385,32.213277)"
       style="stroke-width:11.9048;paint-order:markers stroke fill"><g
         id="path3"><path
           style="-inkscape-font-specification:'Fira Sans';fill:url(#linearGradient5)"
           d="m 18.689453,15.166016 c -3.276147,0 -6.733262,1.371933 -9.0878905,3.726562 C 7.2469341,21.247207 5.875,24.702366 5.875,27.978516 c 0,3.276149 1.3465198,6.687673 3.625,9.080078 l 0.050781,0.05273 0.050781,0.05273 c 2.3340745,2.334072 5.7716505,3.744141 9.0878905,3.744141 3.336165,0 6.81691,-1.377456 9.183594,-3.744141 l 0.05078,-0.05273 0.05078,-0.05273 c 2.278482,-2.392404 3.625,-5.803927 3.625,-9.080078 0,-3.276152 -1.371933,-6.73131 -3.726562,-9.085938 -2.387238,-2.387242 -5.886185,-3.726562 -9.183594,-3.726562 z m 0,11.904296 c 0.682907,0 0.499323,-0.02607 0.765625,0.240235 0.298915,0.298914 0.238281,0.09648 0.238281,0.667969 0,0.518948 -0.03302,0.506152 -0.308593,0.791015 -0.194938,0.21062 -0.110258,0.234375 -0.695313,0.234375 -0.474199,0 -0.396285,-0.01392 -0.597656,-0.230469 -0.280128,-0.289592 -0.310547,-0.273313 -0.310547,-0.794921 0,-0.571489 -0.06063,-0.369056 0.238281,-0.667969 0.298916,-0.298915 0.09843,-0.240235 0.669922,-0.240235 z"
           id="path11" /><path
           style="-inkscape-font-specification:'Fira Sans';fill:#ffffff"
           d="m 18.688768,21.118407 c -1.923819,0 -3.551444,0.65561 -4.878216,1.982382 -1.326771,1.326771 -1.982382,2.954397 -1.982382,4.878216 0,1.923819 0.655611,3.582282 1.982382,4.975392 1.326772,1.32677 2.954397,2.001817 4.878216,2.001817 1.990158,0 3.648621,-0.675047 4.975391,-2.001817 1.326772,-1.39311 1.982384,-3.051573 1.982384,-4.975392 0,-1.923819 -0.655612,-3.551445 -1.982384,-4.878216 -1.32677,-1.326772 -2.985233,-1.982382 -4.975391,-1.982382 z"
           id="path12" /></g><g
         id="path4"><path
           style="-inkscape-font-specification:'Fira Sans';fill:url(#linearGradient6)"
           d="M 38.496094,19.378906 V 37.46875 H 113.44727 V 19.378906 Z"
           id="path13" /><path
           style="-inkscape-font-specification:'Fira Sans';fill:#ffffff"
           d="m 44.449402,25.332143 v 6.184896 H 107.494 v -6.184896 z"
           id="path14" /></g></g><g
       id="g7"
       transform="translate(-0.227385,60.621836)"
       style="stroke-width:11.9048;paint-order:markers stroke fill"><g
         id="path6"><path
           style="-inkscape-font-specification:'Fira Sans';fill:url(#linearGradient7)"
           d="m 18.689453,15.166016 c -3.276147,0 -6.733262,1.371933 -9.0878905,3.726562 C 7.2469341,21.247207 5.875,24.702366 5.875,27.978516 c 0,3.276149 1.3465198,6.687673 3.625,9.080078 l 0.050781,0.05273 0.050781,0.05273 c 2.3340745,2.334072 5.7716505,3.744141 9.0878905,3.744141 3.336165,0 6.81691,-1.377456 9.183594,-3.744141 l 0.05078,-0.05273 0.05078,-0.05273 c 2.278482,-2.392404 3.625,-5.803927 3.625,-9.080078 0,-3.276152 -1.371933,-6.73131 -3.726562,-9.085938 -2.387238,-2.387242 -5.886185,-3.726562 -9.183594,-3.726562 z m 0,11.904296 c 0.682907,0 0.499323,-0.02607 0.765625,0.240235 0.298915,0.298914 0.238281,0.09648 0.238281,0.667969 0,0.518948 -0.03302,0.506152 -0.308593,0.791015 -0.194938,0.21062 -0.110258,0.234375 -0.695313,0.234375 -0.474199,0 -0.396285,-0.01392 -0.597656,-0.230469 -0.280128,-0.289592 -0.310547,-0.273313 -0.310547,-0.794921 0,-0.571489 -0.06063,-0.369056 0.238281,-0.667969 0.298916,-0.298915 0.09843,-0.240235 0.669922,-0.240235 z"
           id="path15" /><path
           style="-inkscape-font-specification:'Fira Sans';fill:#ffffff"
           d="m 18.688768,21.118407 c -1.923819,0 -3.551444,0.65561 -4.878216,1.982382 -1.326771,1.326771 -1.982382,2.954397 -1.982382,4.878216 0,1.923819 0.655611,3.582282 1.982382,4.975392 1.326772,1.32677 2.954397,2.001817 4.878216,2.001817 1.990158,0 3.648621,-0.675047 4.975391,-2.001817 1.326772,-1.39311 1.982384,-3.051573 1.982384,-4.975392 0,-1.923819 -0.655612,-3.551445 -1.982384,-4.878216 -1.32677,-1.326772 -2.985233,-1.982382 -4.975391,-1.982382 z"
           id="path16" /></g><g
         id="path7"><path
           style="-inkscape-font-specification:'Fira Sans';fill:url(#linearGradient8)"
           d="M 38.496094,19.378906 V 37.46875 H 113.44727 V 19.378906 Z"
           id="path17" /><path
           style="-inkscape-font-specification:'Fira Sans';fill:#ffffff"
           d="m 44.449402,25.332143 v 6.184896 H 107.494 v -6.184896 z"
           id="path18" /></g></g></g></svg>
