<?xml version="1.0" encoding="UTF-8" standalone="no"?>
<svg
   viewBox="0 0 126.98413 126.98413"
   version="1.1"
   id="svg15"
   sodipodi:docname="quote.svg"
   xml:space="preserve"
   inkscape:version="1.4 (e7c3feb100, 2024-10-09)"
   width="16"
   height="16"
   xmlns:inkscape="http://www.inkscape.org/namespaces/inkscape"
   xmlns:sodipodi="http://sodipodi.sourceforge.net/DTD/sodipodi-0.dtd"
   xmlns:xlink="http://www.w3.org/1999/xlink"
   xmlns="http://www.w3.org/2000/svg"
   xmlns:svg="http://www.w3.org/2000/svg"><sodipodi:namedview
     id="namedview15"
     pagecolor="#505050"
     bordercolor="#ffffff"
     borderopacity="1"
     inkscape:showpageshadow="0"
     inkscape:pageopacity="0"
     inkscape:pagecheckerboard="1"
     inkscape:deskcolor="#505050"
     inkscape:zoom="31.289475"
     inkscape:cx="9.380151"
     inkscape:cy="8.3734227"
     inkscape:window-width="1840"
     inkscape:window-height="1011"
     inkscape:window-x="0"
     inkscape:window-y="0"
     inkscape:window-maximized="1"
     inkscape:current-layer="svg15" /><defs
     id="defs2"><linearGradient
       id="linearGradient6"
       inkscape:collect="always"><stop
         style="stop-color:#411f5d;stop-opacity:1;"
         offset="0"
         id="stop6" /><stop
         style="stop-color:#5b2a85;stop-opacity:1;"
         offset="1"
         id="stop7" /></linearGradient><inkscape:path-effect
       effect="perspective-envelope"
       up_left_point="98.717368,91.305595"
       up_right_point="106.52828,87.788974"
       down_left_point="98.690893,96.103429"
       down_right_point="106.4027,91.51207"
       id="path-effect24"
       is_visible="true"
       lpeversion="1"
       deform_type="perspective"
       horizontal_mirror="false"
       vertical_mirror="false"
       overflow_perspective="false" /><inkscape:path-effect
       effect="perspective-envelope"
       up_left_point="14.565835,48.444372"
       up_right_point="48.754949,60.738157"
       down_left_point="13.300298,90.144513"
       down_right_point="47.670203,105.87333"
       id="path-effect21"
       is_visible="true"
       lpeversion="1"
       deform_type="perspective"
       horizontal_mirror="false"
       vertical_mirror="false"
       overflow_perspective="false" /><linearGradient
       id="SVGID_1_"
       gradientTransform="scale(-1,1)"
       gradientUnits="userSpaceOnUse"
       x1="-96.680801"
       x2="-110.7736"
       y1="-108.3677"
       y2="-79.065697"><stop
         offset="0.3098"
         stop-color="#FCE8B2"
         id="stop1" /><stop
         offset="0.3987"
         stop-color="#FFCC80"
         id="stop2" /></linearGradient><linearGradient
       id="linearGradient4292"><stop
         id="stop4294"
         offset="0"
         style="stop-color:#411f5d;stop-opacity:1" /><stop
         id="stop4296"
         offset="1"
         style="stop-color:#5b2a85;stop-opacity:1" /></linearGradient><linearGradient
       id="linearGradient4284"><stop
         offset="0"
         style="stop-color:#8381c5;stop-opacity:1"
         id="stop4286" /><stop
         id="stop4290"
         style="stop-color:#7e55b3;stop-opacity:0.99607843"
         offset="0.56639391" /><stop
         offset="1"
         style="stop-color:#a52ecb;stop-opacity:0.99215686"
         id="stop4288" /></linearGradient><linearGradient
       id="linearGradient4898"><stop
         id="stop4278"
         style="stop-color:#bab8db;stop-opacity:1"
         offset="0" /><stop
         id="stop4280"
         style="stop-color:#5955a9;stop-opacity:0.99159664"
         offset="1" /></linearGradient><linearGradient
       id="linearGradient3294"><stop
         offset="0"
         style="stop-color:#6376e6;stop-opacity:1"
         id="stop3296" /><stop
         offset="0.50094414"
         style="stop-color:#222989;stop-opacity:1"
         id="stop3302" /><stop
         offset="1"
         style="stop-color:#00003d;stop-opacity:1"
         id="stop3298" /></linearGradient><linearGradient
       id="linearGradient3284"><stop
         offset="0"
         style="stop-color:#000000;stop-opacity:1"
         id="stop3286" /><stop
         offset="0.84845906"
         style="stop-color:#000000;stop-opacity:0.49803922"
         id="stop3292" /><stop
         offset="1"
         style="stop-color:#000000;stop-opacity:0"
         id="stop3288" /></linearGradient><linearGradient
       id="linearGradient3274"><stop
         offset="0"
         style="stop-color:#000000;stop-opacity:1"
         id="stop3276" /><stop
         offset="1"
         style="stop-color:#000000;stop-opacity:0"
         id="stop3278" /></linearGradient><linearGradient
       id="linearGradient3242"><stop
         offset="0"
         style="stop-color:#282828;stop-opacity:1"
         id="stop3244" /><stop
         offset="0.39253417"
         style="stop-color:#808080;stop-opacity:1"
         id="stop3252" /><stop
         offset="1"
         style="stop-color:#d9d9d9;stop-opacity:1"
         id="stop3246" /></linearGradient><linearGradient
       id="linearGradient3202"><stop
         offset="0"
         style="stop-color:#2b2b2b;stop-opacity:1"
         id="stop3204" /><stop
         offset="0.5"
         style="stop-color:#828383;stop-opacity:1"
         id="stop3250" /><stop
         offset="1"
         style="stop-color:#dadbdb;stop-opacity:1"
         id="stop3206" /></linearGradient><linearGradient
       id="linearGradient4966"><stop
         offset="0"
         style="stop-color:#b6b3d8;stop-opacity:1"
         id="stop4968" /><stop
         offset="1"
         style="stop-color:#b6b3d8;stop-opacity:0"
         id="stop4970" /></linearGradient><linearGradient
       id="linearGradient4876"><stop
         offset="0"
         style="stop-color:#d3d2e8;stop-opacity:1"
         id="stop4878" /><stop
         offset="1"
         style="stop-color:#5955a9;stop-opacity:0.99159664"
         id="stop4880" /></linearGradient><radialGradient
       gradientTransform="matrix(0.6817439,0,0,0.5905355,-3.8523706,-28.935273)"
       gradientUnits="userSpaceOnUse"
       xlink:href="#linearGradient4898"
       id="radialGradient4892"
       fy="-108.96888"
       fx="20.951529"
       r="266.76535"
       cy="-108.96888"
       cx="20.951529" /><radialGradient
       gradientTransform="matrix(1,0,0,0.1854103,0,383.88493)"
       gradientUnits="userSpaceOnUse"
       xlink:href="#linearGradient3274"
       id="radialGradient4944"
       fy="471.26172"
       fx="233.8876"
       r="170.49393"
       cy="471.26172"
       cx="233.8876" /><radialGradient
       gradientTransform="matrix(1,0,0,0.9121621,0,32.654948)"
       gradientUnits="userSpaceOnUse"
       xlink:href="#linearGradient4966"
       id="radialGradient4972"
       fy="371.76376"
       fx="299.70135"
       r="76.696358"
       cy="371.76376"
       cx="299.70135" /><radialGradient
       gradientTransform="matrix(0.414705,0.3300575,-0.5059004,0.6356454,346.95314,49.479585)"
       gradientUnits="userSpaceOnUse"
       xlink:href="#linearGradient3202"
       id="radialGradient3210"
       fy="390.45248"
       fx="289.44067"
       r="17.67668"
       cy="390.45248"
       cx="289.44067" /><radialGradient
       gradientTransform="matrix(0.414705,0.3300575,-0.5059004,0.6356454,448.41009,-65.398074)"
       gradientUnits="userSpaceOnUse"
       xlink:href="#linearGradient3202"
       id="radialGradient3238"
       fy="382.14804"
       fx="283.50717"
       r="17.67668"
       cy="382.14804"
       cx="283.50717" /><radialGradient
       gradientTransform="matrix(-0.06556501,-0.05972176,1.6871024,-1.8521705,171.90774,540.51473)"
       gradientUnits="userSpaceOnUse"
       xlink:href="#linearGradient3242"
       id="radialGradient3248"
       fy="181.18982"
       fx="418.45551"
       r="63.068935"
       cy="181.18982"
       cx="418.45551" /><radialGradient
       gradientTransform="matrix(0.4055116,-0.03344012,0.1034174,4.3988695,177.23251,-1191.6649)"
       gradientUnits="userSpaceOnUse"
       xlink:href="#linearGradient3274"
       id="radialGradient3268"
       fy="357.33591"
       fx="354.51709"
       r="33.712105"
       cy="357.33591"
       cx="354.51709" /><radialGradient
       gradientTransform="matrix(-0.1339874,-0.1146812,0.3079048,-0.3597394,444.23592,395.03849)"
       gradientUnits="userSpaceOnUse"
       xlink:href="#linearGradient3274"
       id="radialGradient3280"
       fy="223.55537"
       fx="510.58469"
       r="132.28336"
       cy="223.55537"
       cx="510.58469" /><radialGradient
       gradientTransform="matrix(-1.2497569,1.3798305,-0.09628946,-0.07297448,674.3826,-70.590682)"
       gradientUnits="userSpaceOnUse"
       xlink:href="#linearGradient3284"
       id="radialGradient3290"
       fy="-158.17821"
       fx="284.4671"
       r="110.2972"
       cy="-158.17821"
       cx="284.4671" /><radialGradient
       gradientTransform="matrix(-0.1008165,-0.08087232,1.0745309,-1.3395252,13.843287,784.79288)"
       gradientUnits="userSpaceOnUse"
       xlink:href="#linearGradient3294"
       id="radialGradient3300"
       fy="356.62274"
       fx="425.51019"
       r="143.34167"
       cy="356.62274"
       cx="425.51019" /><filter
       height="1.1062305"
       y="-0.053115234"
       width="1.1073157"
       x="-0.053657863"
       id="filter4350"
       style="color-interpolation-filters:sRGB"><feGaussianBlur
         id="feGaussianBlur4352"
         stdDeviation="8.7848425" /></filter><linearGradient
       y2="300.73987"
       x2="236.61363"
       y1="-161.8512"
       x1="-122.20192"
       spreadMethod="pad"
       gradientTransform="matrix(0.87385837,0,0,0.82818057,246.00762,250.28138)"
       gradientUnits="userSpaceOnUse"
       id="linearGradient4245"
       xlink:href="#linearGradient4284" /><linearGradient
       y2="66.018341"
       x2="173.94518"
       y1="396.6066"
       x1="447.80933"
       gradientTransform="matrix(0.98684959,0,0,0.98684959,3.0344187,2.5250397)"
       gradientUnits="userSpaceOnUse"
       id="linearGradient4247"
       xlink:href="#linearGradient4292" /><linearGradient
       inkscape:collect="always"
       xlink:href="#linearGradient6"
       id="linearGradient7"
       x1="31.746032"
       y1="13.968216"
       x2="121.39674"
       y2="13.968216"
       gradientUnits="userSpaceOnUse"
       gradientTransform="translate(-13.079319,49.523847)" /></defs><g
     id="text1-6"><path
       style="-inkscape-font-specification:'Fira Sans Bold';fill:url(#linearGradient7);stroke-linecap:square;stroke-linejoin:round;paint-order:markers stroke fill"
       d="m 44.539062,22.539062 c -7.106694,10e-7 -14.407764,2.677019 -19.677734,7.525391 a 11.90594,11.90594 0 0 0 -0.177734,0.166016 c -5.16333,4.948191 -8.238282,12.332598 -8.238282,19.451172 0,5.837231 2.254104,11.593843 5.75586,16.367187 l -6.298828,23.396484 a 11.90594,11.90594 0 0 0 11.49414,14.999998 h 15.429688 a 11.90594,11.90594 0 0 0 10.695312,-6.679685 l 1.640625,-3.357422 A 11.90594,11.90594 0 0 0 66.445312,104.44531 H 81.873047 A 11.90594,11.90594 0 0 0 92.570312,97.765625 L 104.75977,72.8125 a 11.90594,11.90594 0 0 0 0.0762,-0.15625 c 2.10697,-4.477307 3.6394,-8.147512 4.70312,-11.607422 1.23797,-3.594758 1.95313,-7.365316 1.95313,-11.175781 0,-7.165526 -3.01468,-14.634753 -8.24024,-19.642578 -5.194441,-4.978009 -12.557365,-7.691406 -19.664059,-7.691407 -7.08964,10e-7 -14.37163,2.667807 -19.638672,7.494141 -5.180136,-4.836522 -12.409891,-7.49414 -19.410157,-7.494141 z m 0,23.810547 c 2.036154,0 2.290618,0.207057 3.191407,1.070313 0.869675,0.833438 0.904297,0.729771 0.904297,2.453125 0,0.950709 -0.163485,2.065872 -0.664063,3.496094 a 11.90594,11.90594 0 0 0 -0.167969,0.511718 c -0.208113,0.693712 -1.104381,2.642433 -1.615234,3.919922 a 11.90594,11.90594 0 0 0 -3.945313,-4.714844 c -2.172421,-1.526566 -1.988281,-1.358525 -1.988281,-3.404296 0,-1.422333 0.03867,-1.423943 0.804688,-2.150391 1.017145,-0.925878 1.500347,-1.181641 3.480468,-1.181641 z m 39.048829,0 c 2.036153,0 2.290618,0.207057 3.191406,1.070313 0.869675,0.833438 0.902344,0.729771 0.902344,2.453125 0,0.950709 -0.163485,2.065872 -0.664063,3.496094 a 11.90594,11.90594 0 0 0 -0.166016,0.511718 c -0.208133,0.693779 -1.106257,2.64226 -1.617187,3.919922 a 11.90594,11.90594 0 0 0 -3.945313,-4.714844 c -2.172421,-1.526566 -1.988281,-1.358525 -1.988281,-3.404296 0,-1.419576 0.04126,-1.424408 0.802735,-2.146485 1.020495,-0.929562 1.501107,-1.185547 3.484375,-1.185547 z m -12.978516,14.373047 -0.166016,0.511719 c 0.02117,-0.06048 0.02796,-0.124959 0.04883,-0.185547 0.0321,-0.104419 0.08598,-0.222146 0.117188,-0.326172 z"
       id="path7" /><path
       style="-inkscape-font-specification:'Fira Sans Bold';fill:#ffffff;stroke-linecap:square;stroke-linejoin:round;paint-order:markers stroke fill"
       d="m 44.539703,34.444476 q 6.857136,0 11.42856,4.380948 4.571424,4.380948 4.571424,11.047608 0,3.619044 -1.333332,7.428564 -1.142856,3.80952 -4.190472,10.285704 L 42.825419,92.539656 H 27.396863 L 35.396855,62.8254 q -7.047612,-4.952376 -7.047612,-13.142844 0,-6.476184 4.571424,-10.857132 4.7619,-4.380948 11.619036,-4.380948 z m 39.04758,0 q 6.857136,0 11.42856,4.380948 4.571424,4.380948 4.571424,11.047608 0,3.619044 -1.333332,7.428564 -1.142856,3.80952 -4.190472,10.285704 L 81.872999,92.539656 H 66.444443 L 74.444435,62.8254 q -7.047612,-4.952376 -7.047612,-13.142844 0,-6.476184 4.571424,-10.857132 4.7619,-4.380948 11.619036,-4.380948 z"
       id="path8" /></g></svg>
