<?xml version="1.0" encoding="UTF-8" standalone="no"?>
<svg
   viewBox="0 0 126.98413 126.98413"
   version="1.1"
   id="svg15"
   sodipodi:docname="strike.svg"
   xml:space="preserve"
   inkscape:version="1.4 (e7c3feb100, 2024-10-09)"
   width="16"
   height="16"
   xmlns:inkscape="http://www.inkscape.org/namespaces/inkscape"
   xmlns:sodipodi="http://sodipodi.sourceforge.net/DTD/sodipodi-0.dtd"
   xmlns:xlink="http://www.w3.org/1999/xlink"
   xmlns="http://www.w3.org/2000/svg"
   xmlns:svg="http://www.w3.org/2000/svg"><sodipodi:namedview
     id="namedview15"
     pagecolor="#505050"
     bordercolor="#ffffff"
     borderopacity="1"
     inkscape:showpageshadow="0"
     inkscape:pageopacity="0"
     inkscape:pagecheckerboard="1"
     inkscape:deskcolor="#505050"
     inkscape:zoom="22.627417"
     inkscape:cx="9.656427"
     inkscape:cy="3.9774756"
     inkscape:window-width="1840"
     inkscape:window-height="1011"
     inkscape:window-x="0"
     inkscape:window-y="0"
     inkscape:window-maximized="1"
     inkscape:current-layer="svg15" /><defs
     id="defs2"><linearGradient
       id="linearGradient8"
       inkscape:collect="always"><stop
         style="stop-color:#411f5d;stop-opacity:1;"
         offset="0"
         id="stop8" /><stop
         style="stop-color:#5b2a85;stop-opacity:1;"
         offset="1"
         id="stop9" /></linearGradient><inkscape:path-effect
       effect="perspective-envelope"
       up_left_point="98.717368,91.305595"
       up_right_point="106.52828,87.788974"
       down_left_point="98.690893,96.103429"
       down_right_point="106.4027,91.51207"
       id="path-effect24"
       is_visible="true"
       lpeversion="1"
       deform_type="perspective"
       horizontal_mirror="false"
       vertical_mirror="false"
       overflow_perspective="false" /><inkscape:path-effect
       effect="perspective-envelope"
       up_left_point="14.565835,48.444372"
       up_right_point="48.754949,60.738157"
       down_left_point="13.300298,90.144513"
       down_right_point="47.670203,105.87333"
       id="path-effect21"
       is_visible="true"
       lpeversion="1"
       deform_type="perspective"
       horizontal_mirror="false"
       vertical_mirror="false"
       overflow_perspective="false" /><linearGradient
       id="SVGID_1_"
       gradientTransform="scale(-1,1)"
       gradientUnits="userSpaceOnUse"
       x1="-96.680801"
       x2="-110.7736"
       y1="-108.3677"
       y2="-79.065697"><stop
         offset="0.3098"
         stop-color="#FCE8B2"
         id="stop1" /><stop
         offset="0.3987"
         stop-color="#FFCC80"
         id="stop2" /></linearGradient><linearGradient
       id="linearGradient4292"><stop
         id="stop4294"
         offset="0"
         style="stop-color:#411f5d;stop-opacity:1" /><stop
         id="stop4296"
         offset="1"
         style="stop-color:#5b2a85;stop-opacity:1" /></linearGradient><linearGradient
       id="linearGradient4284"><stop
         offset="0"
         style="stop-color:#8381c5;stop-opacity:1"
         id="stop4286" /><stop
         id="stop4290"
         style="stop-color:#7e55b3;stop-opacity:0.99607843"
         offset="0.56639391" /><stop
         offset="1"
         style="stop-color:#a52ecb;stop-opacity:0.99215686"
         id="stop4288" /></linearGradient><linearGradient
       id="linearGradient4898"><stop
         id="stop4278"
         style="stop-color:#bab8db;stop-opacity:1"
         offset="0" /><stop
         id="stop4280"
         style="stop-color:#5955a9;stop-opacity:0.99159664"
         offset="1" /></linearGradient><linearGradient
       id="linearGradient3294"><stop
         offset="0"
         style="stop-color:#6376e6;stop-opacity:1"
         id="stop3296" /><stop
         offset="0.50094414"
         style="stop-color:#222989;stop-opacity:1"
         id="stop3302" /><stop
         offset="1"
         style="stop-color:#00003d;stop-opacity:1"
         id="stop3298" /></linearGradient><linearGradient
       id="linearGradient3284"><stop
         offset="0"
         style="stop-color:#000000;stop-opacity:1"
         id="stop3286" /><stop
         offset="0.84845906"
         style="stop-color:#000000;stop-opacity:0.49803922"
         id="stop3292" /><stop
         offset="1"
         style="stop-color:#000000;stop-opacity:0"
         id="stop3288" /></linearGradient><linearGradient
       id="linearGradient3274"><stop
         offset="0"
         style="stop-color:#000000;stop-opacity:1"
         id="stop3276" /><stop
         offset="1"
         style="stop-color:#000000;stop-opacity:0"
         id="stop3278" /></linearGradient><linearGradient
       id="linearGradient3242"><stop
         offset="0"
         style="stop-color:#282828;stop-opacity:1"
         id="stop3244" /><stop
         offset="0.39253417"
         style="stop-color:#808080;stop-opacity:1"
         id="stop3252" /><stop
         offset="1"
         style="stop-color:#d9d9d9;stop-opacity:1"
         id="stop3246" /></linearGradient><linearGradient
       id="linearGradient3202"><stop
         offset="0"
         style="stop-color:#2b2b2b;stop-opacity:1"
         id="stop3204" /><stop
         offset="0.5"
         style="stop-color:#828383;stop-opacity:1"
         id="stop3250" /><stop
         offset="1"
         style="stop-color:#dadbdb;stop-opacity:1"
         id="stop3206" /></linearGradient><linearGradient
       id="linearGradient4966"><stop
         offset="0"
         style="stop-color:#b6b3d8;stop-opacity:1"
         id="stop4968" /><stop
         offset="1"
         style="stop-color:#b6b3d8;stop-opacity:0"
         id="stop4970" /></linearGradient><linearGradient
       id="linearGradient4876"><stop
         offset="0"
         style="stop-color:#d3d2e8;stop-opacity:1"
         id="stop4878" /><stop
         offset="1"
         style="stop-color:#5955a9;stop-opacity:0.99159664"
         id="stop4880" /></linearGradient><radialGradient
       gradientTransform="matrix(0.6817439,0,0,0.5905355,-3.8523706,-28.935273)"
       gradientUnits="userSpaceOnUse"
       xlink:href="#linearGradient4898"
       id="radialGradient4892"
       fy="-108.96888"
       fx="20.951529"
       r="266.76535"
       cy="-108.96888"
       cx="20.951529" /><radialGradient
       gradientTransform="matrix(1,0,0,0.1854103,0,383.88493)"
       gradientUnits="userSpaceOnUse"
       xlink:href="#linearGradient3274"
       id="radialGradient4944"
       fy="471.26172"
       fx="233.8876"
       r="170.49393"
       cy="471.26172"
       cx="233.8876" /><radialGradient
       gradientTransform="matrix(1,0,0,0.9121621,0,32.654948)"
       gradientUnits="userSpaceOnUse"
       xlink:href="#linearGradient4966"
       id="radialGradient4972"
       fy="371.76376"
       fx="299.70135"
       r="76.696358"
       cy="371.76376"
       cx="299.70135" /><radialGradient
       gradientTransform="matrix(0.414705,0.3300575,-0.5059004,0.6356454,346.95314,49.479585)"
       gradientUnits="userSpaceOnUse"
       xlink:href="#linearGradient3202"
       id="radialGradient3210"
       fy="390.45248"
       fx="289.44067"
       r="17.67668"
       cy="390.45248"
       cx="289.44067" /><radialGradient
       gradientTransform="matrix(0.414705,0.3300575,-0.5059004,0.6356454,448.41009,-65.398074)"
       gradientUnits="userSpaceOnUse"
       xlink:href="#linearGradient3202"
       id="radialGradient3238"
       fy="382.14804"
       fx="283.50717"
       r="17.67668"
       cy="382.14804"
       cx="283.50717" /><radialGradient
       gradientTransform="matrix(-0.06556501,-0.05972176,1.6871024,-1.8521705,171.90774,540.51473)"
       gradientUnits="userSpaceOnUse"
       xlink:href="#linearGradient3242"
       id="radialGradient3248"
       fy="181.18982"
       fx="418.45551"
       r="63.068935"
       cy="181.18982"
       cx="418.45551" /><radialGradient
       gradientTransform="matrix(0.4055116,-0.03344012,0.1034174,4.3988695,177.23251,-1191.6649)"
       gradientUnits="userSpaceOnUse"
       xlink:href="#linearGradient3274"
       id="radialGradient3268"
       fy="357.33591"
       fx="354.51709"
       r="33.712105"
       cy="357.33591"
       cx="354.51709" /><radialGradient
       gradientTransform="matrix(-0.1339874,-0.1146812,0.3079048,-0.3597394,444.23592,395.03849)"
       gradientUnits="userSpaceOnUse"
       xlink:href="#linearGradient3274"
       id="radialGradient3280"
       fy="223.55537"
       fx="510.58469"
       r="132.28336"
       cy="223.55537"
       cx="510.58469" /><radialGradient
       gradientTransform="matrix(-1.2497569,1.3798305,-0.09628946,-0.07297448,674.3826,-70.590682)"
       gradientUnits="userSpaceOnUse"
       xlink:href="#linearGradient3284"
       id="radialGradient3290"
       fy="-158.17821"
       fx="284.4671"
       r="110.2972"
       cy="-158.17821"
       cx="284.4671" /><radialGradient
       gradientTransform="matrix(-0.1008165,-0.08087232,1.0745309,-1.3395252,13.843287,784.79288)"
       gradientUnits="userSpaceOnUse"
       xlink:href="#linearGradient3294"
       id="radialGradient3300"
       fy="356.62274"
       fx="425.51019"
       r="143.34167"
       cy="356.62274"
       cx="425.51019" /><filter
       height="1.1062305"
       y="-0.053115234"
       width="1.1073157"
       x="-0.053657863"
       id="filter4350"
       style="color-interpolation-filters:sRGB"><feGaussianBlur
         id="feGaussianBlur4352"
         stdDeviation="8.7848425" /></filter><linearGradient
       y2="300.73987"
       x2="236.61363"
       y1="-161.8512"
       x1="-122.20192"
       spreadMethod="pad"
       gradientTransform="matrix(0.87385837,0,0,0.82818057,246.00762,250.28138)"
       gradientUnits="userSpaceOnUse"
       id="linearGradient4245"
       xlink:href="#linearGradient4284" /><linearGradient
       y2="66.018341"
       x2="173.94518"
       y1="396.6066"
       x1="447.80933"
       gradientTransform="matrix(0.98684959,0,0,0.98684959,3.0344187,2.5250397)"
       gradientUnits="userSpaceOnUse"
       id="linearGradient4247"
       xlink:href="#linearGradient4292" /><inkscape:path-effect
       effect="perspective-envelope"
       up_left_point="98.717368,91.305595"
       up_right_point="106.52828,87.788974"
       down_left_point="98.690893,96.103429"
       down_right_point="106.4027,91.51207"
       id="path-effect24-1"
       is_visible="true"
       lpeversion="1"
       deform_type="perspective"
       horizontal_mirror="false"
       vertical_mirror="false"
       overflow_perspective="false" /><inkscape:path-effect
       effect="perspective-envelope"
       up_left_point="14.565835,48.444372"
       up_right_point="48.754949,60.738157"
       down_left_point="13.300298,90.144513"
       down_right_point="47.670203,105.87333"
       id="path-effect21-0"
       is_visible="true"
       lpeversion="1"
       deform_type="perspective"
       horizontal_mirror="false"
       vertical_mirror="false"
       overflow_perspective="false" /><radialGradient
       gradientTransform="matrix(0.6817439,0,0,0.5905355,-3.8523706,-28.935273)"
       gradientUnits="userSpaceOnUse"
       xlink:href="#linearGradient4898"
       id="radialGradient4892-1"
       fy="-108.96888"
       fx="20.951529"
       r="266.76535"
       cy="-108.96888"
       cx="20.951529" /><radialGradient
       gradientTransform="matrix(1,0,0,0.1854103,0,383.88493)"
       gradientUnits="userSpaceOnUse"
       xlink:href="#linearGradient3274"
       id="radialGradient4944-2"
       fy="471.26172"
       fx="233.8876"
       r="170.49393"
       cy="471.26172"
       cx="233.8876" /><radialGradient
       gradientTransform="matrix(1,0,0,0.9121621,0,32.654948)"
       gradientUnits="userSpaceOnUse"
       xlink:href="#linearGradient4966"
       id="radialGradient4972-9"
       fy="371.76376"
       fx="299.70135"
       r="76.696358"
       cy="371.76376"
       cx="299.70135" /><radialGradient
       gradientTransform="matrix(0.414705,0.3300575,-0.5059004,0.6356454,346.95314,49.479585)"
       gradientUnits="userSpaceOnUse"
       xlink:href="#linearGradient3202"
       id="radialGradient3210-3"
       fy="390.45248"
       fx="289.44067"
       r="17.67668"
       cy="390.45248"
       cx="289.44067" /><radialGradient
       gradientTransform="matrix(0.414705,0.3300575,-0.5059004,0.6356454,448.41009,-65.398074)"
       gradientUnits="userSpaceOnUse"
       xlink:href="#linearGradient3202"
       id="radialGradient3238-9"
       fy="382.14804"
       fx="283.50717"
       r="17.67668"
       cy="382.14804"
       cx="283.50717" /><radialGradient
       gradientTransform="matrix(-0.06556501,-0.05972176,1.6871024,-1.8521705,171.90774,540.51473)"
       gradientUnits="userSpaceOnUse"
       xlink:href="#linearGradient3242"
       id="radialGradient3248-0"
       fy="181.18982"
       fx="418.45551"
       r="63.068935"
       cy="181.18982"
       cx="418.45551" /><radialGradient
       gradientTransform="matrix(0.4055116,-0.03344012,0.1034174,4.3988695,177.23251,-1191.6649)"
       gradientUnits="userSpaceOnUse"
       xlink:href="#linearGradient3274"
       id="radialGradient3268-8"
       fy="357.33591"
       fx="354.51709"
       r="33.712105"
       cy="357.33591"
       cx="354.51709" /><radialGradient
       gradientTransform="matrix(-0.1339874,-0.1146812,0.3079048,-0.3597394,444.23592,395.03849)"
       gradientUnits="userSpaceOnUse"
       xlink:href="#linearGradient3274"
       id="radialGradient3280-8"
       fy="223.55537"
       fx="510.58469"
       r="132.28336"
       cy="223.55537"
       cx="510.58469" /><radialGradient
       gradientTransform="matrix(-1.2497569,1.3798305,-0.09628946,-0.07297448,674.3826,-70.590682)"
       gradientUnits="userSpaceOnUse"
       xlink:href="#linearGradient3284"
       id="radialGradient3290-5"
       fy="-158.17821"
       fx="284.4671"
       r="110.2972"
       cy="-158.17821"
       cx="284.4671" /><radialGradient
       gradientTransform="matrix(-0.1008165,-0.08087232,1.0745309,-1.3395252,13.843287,784.79288)"
       gradientUnits="userSpaceOnUse"
       xlink:href="#linearGradient3294"
       id="radialGradient3300-0"
       fy="356.62274"
       fx="425.51019"
       r="143.34167"
       cy="356.62274"
       cx="425.51019" /><filter
       height="1.1062305"
       y="-0.053115234"
       width="1.1073157"
       x="-0.053657863"
       id="filter4350-9"
       style="color-interpolation-filters:sRGB"><feGaussianBlur
         id="feGaussianBlur4352-6"
         stdDeviation="8.7848425" /></filter><linearGradient
       inkscape:collect="always"
       xlink:href="#linearGradient8"
       id="linearGradient9"
       x1="16.985996"
       y1="63.492064"
       x2="113.47036"
       y2="63.492064"
       gradientUnits="userSpaceOnUse"
       gradientTransform="translate(-1.736113)" /></defs><g
     id="text2"><path
       style="-inkscape-font-specification:'Fira Sans';fill:url(#linearGradient9);stroke-linecap:square;stroke-linejoin:round;paint-order:markers stroke fill"
       d="m 62.390625,9.4980469 c -6.388694,0 -12.495559,1.1819021 -18.001953,3.7148441 a 8.7310232,8.7310232 0 0 0 -0.06055,0.02734 c -5.3691,2.52019 -9.997959,6.293886 -13.28125,11.101563 a 8.7310232,8.7310232 0 0 0 -0.08203,0.123047 c -3.220903,4.891 -4.865235,10.703948 -4.865235,16.613281 0,2.873157 0.495822,5.659104 1.212891,8.367187 H 23.980469 A 8.7310232,8.7310232 0 0 0 15.25,58.175781 v 9.640625 a 8.7310232,8.7310232 0 0 0 8.730469,8.730469 h 39.46875 c 1.858836,0.718093 3.659431,1.453397 4.46289,1.919922 a 8.7310232,8.7310232 0 0 0 0.103516,0.05859 c 1.766093,0.993427 2.334663,1.780196 2.400391,1.896484 A 8.7310232,8.7310232 0 0 0 70.5,80.566406 c 0.08672,0.146759 0.429688,0.892647 0.429687,2.673828 0,2.996162 -0.441156,3.614742 -1.845703,4.69336 -1.835359,1.33842 -4.222384,2.185547 -8.210937,2.185547 -3.527319,0 -6.442013,-0.555131 -8.917969,-1.523438 -2.738411,-1.157468 -5.598135,-2.87669 -8.578125,-5.289062 A 8.7310232,8.7310232 0 0 0 31.384766,84.263672 L 24.78125,91.625 a 8.7310232,8.7310232 0 0 0 0.396484,12.07031 c 9.338616,9.13337 21.902052,13.78906 35.81836,13.78907 7.417906,0 14.281319,-1.27187 20.333984,-4.12696 5.961202,-2.77306 11.025815,-6.94854 14.433594,-12.32812 3.464185,-5.338926 5.197268,-11.661372 5.197268,-18.175784 0,-2.153789 -0.22882,-4.249412 -0.56836,-6.306641 h 2.61133 a 8.7310232,8.7310232 0 0 0 8.73047,-8.730469 v -9.640625 a 8.7310232,8.7310232 0 0 0 -8.73047,-8.730469 H 73.226562 c -1.382443,-0.492931 -2.752238,-0.98912 -4.330078,-1.474609 a 8.7310232,8.7310232 0 0 0 -0.0098,-0.002 c -4.943703,-1.515005 -8.574053,-2.944862 -10.576172,-3.972656 -1.692295,-0.923093 -2.212757,-1.625646 -2.076172,-1.390625 -0.124928,-0.232703 -0.349609,-0.723268 -0.349609,-2.039063 0,-1.935353 -0.02312,-1.583094 0.792968,-2.166015 1.222858,-0.87347 2.984648,-1.535157 6.22461,-1.535157 2.646881,0 4.848869,0.429388 6.873047,1.25 a 8.7310232,8.7310232 0 0 0 0.263671,0.101563 c 2.158137,0.795103 4.641253,2.198065 7.365235,4.363281 a 8.7310232,8.7310232 0 0 0 11.93164,-1.005859 l 6.603516,-7.363282 A 8.7310232,8.7310232 0 0 0 95.25,21.865234 C 90.731194,17.837603 85.846932,14.691901 80.597656,12.646484 75.125631,10.428064 69.030186,9.4980469 62.390625,9.4980469 Z m 13.683594,12.3359371 0.261718,0.101563 c -0.04024,-0.01632 -0.0847,-0.019 -0.125,-0.03516 -0.04692,-0.01751 -0.08975,-0.0491 -0.136718,-0.06641 z m 0.501953,41.47461 0.103515,0.05859 c -0.01644,-0.0095 -0.03823,-0.01587 -0.05469,-0.02539 -0.01725,-0.0097 -0.03156,-0.02349 -0.04883,-0.0332 z m 8.957031,8.375 0.08398,0.146484 c -0.0183,-0.03237 -0.04404,-0.05763 -0.0625,-0.08984 -0.01051,-0.01793 -0.0109,-0.03873 -0.02148,-0.05664 z"
       id="path1" /><path
       style="-inkscape-font-specification:'Fira Sans';fill:#ffffff;stroke-linecap:square;stroke-linejoin:round;paint-order:markers stroke fill"
       d="m 62.391493,18.229169 c -5.333328,0 -10.121119,0.967099 -14.353919,2.914187 -4.148144,1.947088 -7.410759,4.651624 -9.781127,8.12252 -2.285712,3.470896 -3.425719,7.409644 -3.425719,11.811756 0,6.518512 2.083255,11.691472 6.231399,15.500993 0.594932,0.546366 1.243436,1.072874 1.937624,1.596603 H 23.980033 v 9.641617 h 41.217139 c 2.916222,1.035286 5.31646,2.06491 7.099455,3.100198 2.708992,1.523808 4.619338,3.261246 5.719866,5.208334 1.100528,1.862431 1.643105,4.23665 1.643105,7.114954 0,5.07936 -1.776789,8.978757 -5.332341,11.687749 -3.555552,2.624336 -8.036878,3.921751 -13.454862,3.921751 -4.486768,0 -8.559073,-0.715486 -12.199281,-2.154638 -3.640208,-1.523808 -7.233138,-3.72512 -10.78869,-6.603424 l -6.603423,7.362971 c 7.703696,7.53438 17.609594,11.30022 29.715402,11.30022 6.433856,0 11.976485,-1.10066 16.632565,-3.30171 4.740736,-2.20106 8.333667,-5.23591 10.788691,-9.130082 2.53968,-3.894176 3.813244,-8.391002 3.813244,-13.470362 0,-5.248672 -1.140007,-9.557089 -3.425719,-12.943329 -0.465181,-0.733554 -0.974134,-1.427143 -1.503596,-2.092634 H 103.0041 V 58.175226 H 71.785094 c -1.716805,-0.632204 -3.505438,-1.259838 -5.456349,-1.860118 -5.248672,-1.608463 -9.266124,-3.13364 -12.059772,-4.572792 -2.708992,-1.439152 -4.579987,-3.003681 -5.595859,-4.696801 -1.015872,-1.777777 -1.519097,-3.939735 -1.519097,-6.479416 0,-4.063488 1.485825,-7.153194 4.448785,-9.269593 2.96296,-2.1164 6.728799,-3.162203 11.300223,-3.162203 3.640208,0 7.020878,0.621281 10.15315,1.891121 3.216928,1.185184 6.479543,3.095531 9.781127,5.719867 l 6.603422,-7.362972 C 85.546548,24.911423 81.529096,22.364295 77.380952,20.755831 73.232808,19.062711 68.232757,18.229169 62.391493,18.229169 Z"
       id="path2" /></g></svg>
